<?xml version="1.0" encoding="UTF-8"?>
<svg width="132px" height="132px" viewBox="0 0 132 132" version="1.1" xmlns="http://www.w3.org/2000/svg" xmlns:xlink="http://www.w3.org/1999/xlink">
    <!-- Generator: Sketch 52.1 (67048) - http://www.bohemiancoding.com/sketch -->
    <title>Player Copy</title>
    <desc>Created with Sketch.</desc>
    <defs>
        <rect id="path-1" x="0" y="0" width="132" height="132" rx="19"></rect>
    </defs>
    <g id="Player-Copy" stroke="none" stroke-width="1" fill="none" fill-rule="evenodd">
        <mask id="mask-2" fill="white">
            <use xlink:href="#path-1"></use>
        </mask>
        <use id="Rectangle" fill="#FFD161" fill-rule="nonzero" transform="translate(66.000000, 66.000000) scale(-1, 1) translate(-66.000000, -66.000000) " xlink:href="#path-1"></use>
        <rect id="Rectangle" fill="#4A90E2" fill-rule="nonzero" mask="url(#mask-2)" transform="translate(66.000000, 115.000000) scale(-1, 1) translate(-66.000000, -115.000000) " x="0" y="98" width="132" height="34"></rect>
        <rect id="Rectangle-Copy" fill="#2C6EBA" fill-rule="nonzero" mask="url(#mask-2)" transform="translate(66.000000, 100.500000) scale(-1, 1) translate(-66.000000, -100.500000) " x="0" y="98" width="132" height="5"></rect>
        <rect id="Rectangle" fill="#252525" fill-rule="nonzero" mask="url(#mask-2)" transform="translate(71.000000, 59.500000) scale(-1, 1) translate(-71.000000, -59.500000) " x="61" y="29" width="20" height="61" rx="8"></rect>
        <rect id="Rectangle-Copy-2" fill="#252525" fill-rule="nonzero" mask="url(#mask-2)" transform="translate(21.000000, 59.500000) scale(-1, 1) translate(-21.000000, -59.500000) " x="11" y="29" width="20" height="61" rx="8"></rect>
        <polygon id="Rectangle" fill="#764921" fill-rule="nonzero" mask="url(#mask-2)" transform="translate(66.000000, 17.054274) scale(-1, 1) translate(-66.000000, -17.054274) " points="-1.1368326e-13 3.55271368e-15 132 3.55271368e-15 132 23 87.275509 23 94.6590149 34.108548 76.3225493 23 23.6164511 23 25.220727 34.108548 7.46458237 23 10.0376586 29.2213818 -1.1368326e-13 23"></polygon>
    </g>
</svg>