<?xml version="1.0" encoding="UTF-8"?>
<svg width="135px" height="128px" viewBox="0 0 135 128" version="1.1" xmlns="http://www.w3.org/2000/svg" xmlns:xlink="http://www.w3.org/1999/xlink">
    <!-- Generator: Sketch 52.1 (67048) - http://www.bohemiancoding.com/sketch -->
    <title>Artboard</title>
    <desc>Created with Sketch.</desc>
    <g id="Artboard" stroke="none" stroke-width="1" fill="none" fill-rule="evenodd">
        <g id="Group" transform="translate(-3.000000, 0.000000)" fill-rule="nonzero">
            <polygon id="Star" fill="#FFB000" points="70.5 105.75 29.0611397 127.535698 36.9752578 81.3928491 3.4505156 48.7143019 49.7805699 41.9821509 70.5 0 91.2194301 41.9821509 137.549484 48.7143019 104.024742 81.3928491 111.93886 127.535698"></polygon>
            <polygon id="Path" fill="#FFCF00" points="8.91537303 50.1879255 44.4577443 45.7653788 74.7497589 70.4717008"></polygon>
            <polygon id="Path" fill="#FFCF00" transform="translate(75.511426, 36.843225) rotate(72.000000) translate(-75.511426, -36.843225) " points="43.2211669 31.092251 78.7635382 26.6697043 107.801686 47.0167467"></polygon>
            <polygon id="Path" fill="#FFCF00" transform="translate(103.954625, 58.008911) rotate(178.000000) translate(-103.954625, -58.008911) " points="75.4550811 64.4982998 132.45417 45.6665323 110.997452 70.3512892"></polygon>
            <polygon id="Path" fill="#FFCF00" transform="translate(94.321823, 94.277457) rotate(246.000000) translate(-94.321823, -94.277457) " points="64.2244651 96.6790793 124.419182 86.0228443 97.7668364 102.532069"></polygon>
            <polygon id="Path" fill="#FFCF00" transform="translate(53.054232, 96.324243) rotate(288.000000) translate(-53.054232, -96.324243) " points="21.205504 85.920498 56.7478753 81.4979514 84.9029601 111.150535"></polygon>
        </g>
    </g>
</svg>