<?xml version="1.0" encoding="UTF-8"?>
<svg width="50px" height="50px" viewBox="0 0 50 50" version="1.1" xmlns="http://www.w3.org/2000/svg" xmlns:xlink="http://www.w3.org/1999/xlink">
    <!-- Generator: Sketch 52.3 (67297) - http://www.bohemiancoding.com/sketch -->
    <title>card10</title>
    <desc>Created with Sketch.</desc>
    <g id="card10" stroke="none" stroke-width="1" fill="none" fill-rule="evenodd">
        <rect id="Rectangle" fill="#E3DCAE" fill-rule="nonzero" x="0" y="0" width="50" height="50" rx="3"></rect>
        <path d="M10.7980452,37.2585574 C10.9174777,36.7257605 10.9581296,36.6581704 12.196215,34.9336505 C14.0262324,32.3846494 14.6780406,31.0154748 15.9496867,27.0492219 C16.0054354,26.8753412 15.7350695,26.6580453 15.4629694,26.6580453 C15.1092781,26.6580453 14.8385617,26.8757394 14.6691309,27.2964164 C14.4780064,27.7709416 14.3527513,27.8679558 13.8610005,27.9223438 C13.3918096,27.9742501 12.8329004,27.7894764 12.6098371,27.508725 C12.4520832,27.3101803 12.4525839,27.2591668 12.6190194,26.5830714 C12.7853084,25.9075724 12.7859279,25.847617 12.6300972,25.5111284 C12.1670312,24.5112028 11.0238617,24.3922192 10.3680595,25.275694 C9.92696645,25.8699373 8.96599969,26.8902486 8.40950711,27.3551918 C7.42432523,28.1783039 6.78034919,28.2045752 6.11639958,27.4487205 C5.89679798,27.1987313 5.82524498,27.0288507 5.82524498,26.7575339 C5.82524498,26.444913 5.87322363,26.3614354 6.1916016,26.1201537 C6.66065065,25.7646776 7.32236819,25.4613458 8.36532123,25.1237536 C9.78534607,24.6640959 10.4107423,24.2557481 10.764735,23.5570906 C11.0279994,23.0374866 10.9055588,22.399499 10.5089975,22.2244801 C9.9263971,21.9673472 9.2406128,21.3987408 8.07291753,22.7568935 C6.9895936,24.016912 6.40348143,24.3260584 5.1934855,24.275674 C4.35702222,24.2408389 3.81292606,24.1245262 3.35588117,23.5570906 C2.93908991,23.0396175 3.09095353,23.0396175 3.00782338,22.9251777 C2.92469324,22.8107378 3.09095353,22.2918829 3.35588117,21.9757128 C3.7266101,21.5332645 4.39941608,21.1606117 5.1473383,20.983451 C5.45262898,20.9111354 6.39414887,20.822545 7.29663321,20.7812189 C9.29282282,20.6898194 9.90729709,20.5897943 12.1011535,19.9991292 C13.2103107,19.7005158 13.5431577,19.4953909 13.5431577,19.1104707 C13.5431577,18.8771282 13.1398232,18.5480843 12.7783035,18.486497 C12.5127504,18.4412627 10.5025248,18.2794358 10.2045943,18.2793194 C9.93327228,18.2792013 9.45191122,17.8846764 9.3493486,17.5783491 C9.2016468,17.1372117 9.41837929,16.7812047 9.89970604,16.6743177 C10.4121342,16.5605306 10.791312,16.6592975 11.7368388,17.1528438 C12.1661234,17.3769134 12.8165722,17.6355363 13.1822797,17.727554 C13.8208216,17.8882209 13.8644261,17.889431 14.2815127,17.7580781 C15.120636,17.4938015 15.2217381,17.0276128 14.6422294,16.0947573 C14.164088,15.3250887 13.2844426,14.5499719 12.5351192,14.2380346 C11.4039261,13.7671341 10.6670167,13.0192467 10.2060743,11.8742994 C10.022577,11.4184914 9.97957345,11.1403846 9.98186021,10.4241208 C9.98436211,9.63855111 10.0140308,9.48552477 10.2431588,9.07671786 C10.8144385,8.05743378 11.947515,8.02911225 12.682541,9.01574605 C12.9181509,9.33200342 12.9894359,9.60153601 13.2574465,11.1894907 C13.6084745,13.2692913 13.7427635,13.6117827 14.5201068,14.4098171 C15.3249174,15.2360483 16.0331308,15.5007704 16.4715235,15.139246 C16.7588743,14.9022835 16.7996968,14.6425296 16.6253568,14.1605135 C16.5391716,13.9222454 16.4433979,13.4735198 16.41252,13.1633425 C16.3639525,12.6755126 16.3972823,12.4949463 16.6594303,11.8256819 C17.1507619,10.5713035 17.0544207,10.028981 16.1207904,8.79368099 C15.5777588,8.07518113 15.525113,7.7622281 15.892727,7.43774745 C16.3502968,7.03386492 17.0072998,6.87424462 17.2440077,7.10944876 C17.3191615,7.18413168 17.3465657,7.71422856 17.330434,8.78118172 C17.3043133,10.5073648 17.2691938,10.3768183 18.0868885,11.592318 C18.3680911,12.0103369 18.6191447,12.9002731 18.6216076,13.4878218 C18.6225757,13.719627 18.6875105,13.9684579 18.7734175,14.0696121 C19.045154,14.3895332 19.9725044,14.4804645 20.3638802,14.2255644 C20.434618,14.1794928 20.6851412,13.8962005 20.9206083,13.5960243 C21.1655397,13.2837942 21.517597,12.9581049 21.743344,12.834904 C22.081562,12.6503303 22.2140335,12.6247573 22.670342,12.655965 C23.1138888,12.6862963 23.2690278,12.7417562 23.5999218,12.9882799 C23.9121154,13.220876 24.0773603,13.2841924 24.372226,13.2841924 C25.15344,13.2841924 26.0481246,12.6721434 26.0481246,12.1377269 C26.0481246,12.00769 25.915744,11.6525562 25.7539321,11.348529 C25.3194842,10.5322333 25.2949157,10.2205879 25.604754,9.45614297 C26.1390614,8.13790769 26.6176702,7.77165232 27.8066363,7.77115641 C28.7954162,7.7707423 29.4742484,8.15997121 29.6465298,8.82610782 C29.761792,9.27179256 29.6780179,9.60273149 29.2011821,10.5852523 C28.1642817,12.7217923 28.1001334,13.3840457 28.8686709,14.0178313 C29.0663237,14.1808337 29.4123553,14.3597364 29.6376312,14.4153945 C30.2993599,14.5788914 30.770691,14.3816285 31.6699251,13.5648083 C32.5685583,12.7485391 33.031206,12.5526189 33.5985335,12.7481009 C33.8979208,12.8512597 33.9717949,12.93116 34.1019648,13.2926325 C34.1858687,13.5256305 34.2545165,13.8051782 34.2545165,13.9138517 C34.2545165,14.7705579 33.2996135,15.6198894 32.0563768,15.8689558 C31.7877171,15.9227812 31.3574885,16.0533349 31.1003239,16.1590783 C29.6253609,16.7655581 30.2506607,18.0301439 32.0282901,18.0357822 C32.8162123,18.0382786 33.4980489,17.7993369 34.3522115,17.2213739 C35.9069427,16.1693866 37.8223089,15.0437601 38.5860132,14.7332401 C39.8123244,14.2346191 41.48622,14.0435045 42.6637801,14.2676578 C43.8787261,14.4989275 44.3491077,15.5090833 43.723155,16.5426775 C43.3954695,17.0837537 43.2994065,17.1077376 42.1358415,16.9389261 C40.2695826,16.6681694 38.6411924,16.789523 37.0162594,17.3204562 C35.652126,17.7661773 34.1825415,18.4231306 33.9303288,18.6999747 C33.4107064,19.2703412 33.536236,19.8721092 34.2578919,20.2701678 C35.1288834,20.7505803 35.3447637,20.9570015 35.4001582,21.3623074 C35.473754,21.9006753 35.3046812,22.1612537 34.6277371,22.5528522 C33.7345973,23.0694889 33.4769839,23.5429613 33.8056041,24.0638162 C34.0095999,24.3871409 34.338873,24.6112006 34.938664,24.8348366 C35.7234852,25.1274627 36.2640984,25.1691179 37.1552388,25.0056173 C38.2217356,24.8099435 38.9620714,24.8709608 39.692726,25.2147294 C40.887371,25.7767977 41.5203009,26.4587823 41.9294978,27.6248339 C42.0714447,28.029349 42.1125027,28.405169 42.109884,29.2764273 C42.1060449,30.549886 41.9848886,30.9449154 41.4616163,31.3901274 C40.2760367,32.3988768 38.4595044,31.0137201 37.824182,28.6164558 C37.5500846,27.5822133 37.239829,27.0211342 36.7063302,26.594857 C36.0080021,26.0368706 34.277514,25.4633004 33.6058741,25.5672074 C33.177118,25.6335393 32.5356458,26.1648834 32.400728,26.5654638 C32.1733786,27.2404574 32.3272953,27.6590054 33.132525,28.555504 C34.6644775,30.261069 35.1066129,30.9609539 35.2063518,31.8382504 C35.2703147,32.4009077 35.1522296,32.6179364 34.6598854,32.8425488 C34.1605751,33.0703412 33.7472905,33.1270202 33.3038049,33.0285461 C32.7792714,32.9120589 32.4817165,32.6284111 32.4367006,32.2019394 C32.2008644,29.9677756 32.0335423,29.3978873 31.4477872,28.8335426 C30.8364899,28.2446103 29.8380585,28.0252689 29.0322946,28.3029076 C28.4074436,28.5182125 28.2974226,28.820717 28.4416432,29.9267951 C28.4935695,30.3250573 28.4803385,30.5514624 28.3976622,30.6788352 C28.2733382,30.8704107 27.7534173,31.089143 27.4223916,31.089143 C26.8911592,31.089143 26.0965343,30.0807755 25.6612666,28.8542666 C25.3957524,28.1060847 25.1382948,27.8504137 24.6503794,27.8504137 C24.096819,27.8504137 23.8307392,28.0397546 23.6453789,28.565546 C23.390731,29.2879402 23.4924618,29.9583755 24.0711044,31.3711218 C24.6353308,32.7486529 24.706729,32.8906023 25.6111876,34.4326086 C26.119773,35.299714 26.2832096,35.6656721 26.3179804,36.0152373 C26.3774253,36.6130279 26.2073529,37.0223902 25.8182435,37.2180476 C25.2290554,37.5143284 24.8714379,37.3834573 24.4040756,36.7005419 C23.9499907,36.0370085 23.8138322,35.5185827 23.7092731,34.0551285 C23.5606774,31.9753543 23.0509032,30.1533439 22.1853364,28.6084321 C21.7632608,27.8550865 21.6054086,27.7053988 21.2330392,27.7053988 C20.4563487,27.7053988 19.8622718,28.3649885 19.8543469,29.2361413 C19.8500516,29.707821 19.8903325,29.8182081 20.2599811,30.3478467 C20.4857133,30.6712624 20.7373473,31.0985178 20.8191871,31.2973043 C20.9695336,31.6624951 21.0043229,32.5712848 20.8821559,32.9421521 C20.7798019,33.2528694 20.2597604,33.4252756 19.4244317,33.425421 C18.5340128,33.4255719 18.2115426,33.2982228 18.0003916,32.8630509 C17.7455787,32.3378687 17.80137,31.8363631 18.2325241,30.7766057 C18.6901013,29.651871 18.7544258,28.8777742 18.4380369,28.3033076 C18.2435073,27.9501115 17.8195808,27.624834 17.5537568,27.624834 C16.980719,27.624834 16.1002001,29.2175464 15.4488092,31.4323354 C15.1015517,32.6130473 14.9832738,33.1769701 14.5744848,35.600813 C14.3019656,37.2166912 14.1465745,37.6718325 13.6905274,38.1900728 C13.0503515,38.9175489 11.5689473,39.2556594 11.1135707,38.7782487 C10.818067,38.4684515 10.6780286,37.7939507 10.7980452,37.2585574 Z" id="splat" fill="#3EE545"></path>
    </g>
</svg>