<?xml version="1.0"?><svg width="1600" height="1200" xmlns="http://www.w3.org/2000/svg">
 <title>Blue Splat - high res</title>
 <metadata id="metadata7">image/svg+xml</metadata>
 <g>
  <title>Layer 1</title>
  <g style="vector-effect: non-scaling-stroke; " id="layer1">
   <path style="vector-effect: non-scaling-stroke; " fill="#57cbf2" fill-rule="evenodd" stroke="#57cbf2" stroke-width="0.999849" stroke-miterlimit="4" stroke-dashoffset="0" id="path2529" d="m474.065765,1141.018677c-9.724854,-10.399536 -14.333435,-33.041748 -10.383759,-51.014282c3.93045,-17.885376 5.26828,-20.154297 46.012939,-78.044434c60.224792,-85.567017 81.675415,-131.528625 123.524536,-264.671143c1.834656,-5.836975 -7.062927,-13.131348 -16.017578,-13.131348c-11.639771,0 -20.548889,7.307739 -26.124756,21.429382c-6.289795,15.92926 -10.411865,19.185913 -26.595093,21.011658c-15.440796,1.742432 -33.834167,-4.460205 -41.175049,-13.884705c-5.191589,-6.664917 -5.17511,-8.37738 0.302185,-31.07312c5.472473,-22.67572 5.492859,-24.688354 0.364563,-35.983887c-15.239227,-33.566345 -52.86026,-37.560486 -74.442322,-7.903259c-14.516113,19.948059 -46.140961,54.19873 -64.454803,69.806335c-32.421753,27.63092 -53.614624,28.512817 -75.464813,3.139648c-7.226959,-8.391846 -9.581726,-14.094543 -9.581726,-23.202332c0,-10.494324 1.578949,-13.29657 12.05658,-21.396118c15.436127,-11.932922 37.21286,-22.115417 71.535828,-33.447998c46.732178,-15.430176 67.313599,-29.137939 78.963287,-52.591064c8.663879,-17.442505 4.63443,-38.859009 -8.416168,-44.734192c-19.173035,-8.631653 -41.741791,5.849731 -80.169952,51.441345c-35.65155,42.297363 -54.940155,52.675049 -94.760406,50.983704c-27.527512,-1.169373 -40.58493,-7.371033 -55.626007,-26.419189c-13.716354,-17.370972 -17.679657,-30.129089 -16.302841,-52.484253c1.014236,-16.468994 2.735764,-21.258972 11.454376,-31.872437c12.20047,-14.852478 34.342117,-27.362 58.955795,-33.309082c10.046936,-2.427551 41.031799,-5.401428 70.732025,-6.788696c65.69342,-3.068176 85.915405,-6.425903 158.113922,-26.253845c36.501709,-10.024109 47.455505,-16.909912 47.455505,-29.831238c0,-7.833038 -13.273499,-18.878662 -25.170898,-20.946075c-8.739197,-1.518463 -74.894531,-6.950806 -84.699249,-6.954712c-8.929047,-0.003967 -24.770355,-13.247711 -28.14563,-23.530762c-4.860779,-14.808472 2.271759,-26.759216 18.111938,-30.34729c16.863708,-3.819702 29.342224,-0.504211 60.458954,16.063568c14.127502,7.521759 35.533386,16.20343 47.568604,19.292358c21.014038,5.393402 22.449036,5.434021 36.17511,1.024658c27.615051,-8.87146 30.942261,-24.520874 11.870972,-55.835754c-15.735352,-25.836884 -44.68396,-51.856659 -69.34375,-62.328033c-37.226898,-15.807587 -61.478149,-40.9133 -76.647491,-79.347855c-6.038788,-15.300949 -7.45401,-24.636673 -7.378754,-48.680817c0.082336,-26.370667 1.058716,-31.507584 8.599182,-45.230759c18.800476,-34.216187 56.089355,-35.166908 80.278625,-2.046753c7.753784,10.616394 10.099731,19.664291 18.9198,72.970093c11.552124,69.816498 15.971497,81.313538 41.553406,108.102631c26.48584,27.735626 49.792725,36.62204 64.219971,24.486084c9.456543,-7.954559 10.799988,-16.674194 5.062561,-32.854919c-2.836304,-7.998383 -5.988159,-23.061584 -7.004333,-33.473877c-1.598328,-16.375885 -0.501465,-22.437286 8.125671,-44.903717c16.169434,-42.108032 12.998901,-60.313171 -17.726318,-101.780762c-17.87085,-24.119209 -19.603394,-34.62468 -7.505432,-45.51712c15.05835,-13.557869 36.679932,-18.916138 44.469849,-11.020607c2.473267,2.507019 3.375122,20.301758 2.844238,56.118141c-0.859619,57.945969 -2.015381,53.563675 24.89447,94.366592c9.254211,14.03241 17.516235,43.90654 17.59729,63.629868c0.03186,7.781433 2.168823,16.134399 4.995972,19.530029c8.942688,10.73938 39.461243,13.79184 52.341187,5.235138c2.327942,-1.54657 10.57251,-11.056366 18.321594,-21.132935c8.060547,-10.481201 19.646545,-21.414215 27.075745,-25.549927c11.130554,-6.195923 15.490112,-7.054382 30.506958,-6.006775c14.596863,1.018188 19.702393,2.879913 30.591919,11.155426c10.274109,7.807983 15.712219,9.933441 25.416077,9.933441c25.70929,0 55.152832,-20.545776 55.152832,-38.485519c0,-4.365189 -4.356567,-16.286621 -9.681702,-26.492462c-14.297424,-27.4021 -15.105957,-37.863678 -4.909363,-63.525208c17.58374,-44.251633 33.334473,-56.546402 72.462646,-56.563049c32.540161,-0.013901 54.880127,13.052063 60.549805,35.413498c3.793213,14.961121 1.036255,26.070358 -14.656128,59.052444c-34.123779,71.721176 -36.234863,93.952255 -10.942749,115.227707c6.504639,5.471802 17.892334,11.477356 25.30603,13.345734c21.7771,5.488403 37.28833,-1.133484 66.881592,-28.553192c29.573486,-27.401215 44.79895,-33.978027 63.46936,-27.415924c9.852661,3.462921 12.283813,6.145081 16.567627,18.279297c2.76123,7.821472 5.020386,17.205566 5.020386,20.853607c0,28.758636 -31.425293,57.269714 -72.339478,65.630585c-8.841431,1.806854 -23,6.189392 -31.463135,9.739075c-48.540161,20.358826 -27.961914,62.809509 30.538818,62.998779c25.930054,0.083801 48.368896,-7.937195 76.478882,-27.338745c51.165283,-35.313995 114.198853,-73.099976 139.331909,-83.523773c40.357178,-16.738129 95.444092,-23.153625 134.196899,-15.629059c39.983154,7.763458 55.463135,41.673218 34.863403,76.369781c-10.783936,18.1633 -13.945313,18.968414 -52.237549,13.301605c-61.41748,-9.088989 -115.006836,-5.015289 -168.482422,12.807526c-44.892822,14.962341 -93.255981,37.015503 -101.556152,46.308838c-17.100464,19.146545 -12.96936,39.347198 10.779907,52.709564c28.663818,16.126892 35.768311,23.056213 37.591309,36.661865c2.421997,18.072388 -3.14209,26.819702 -25.419922,39.96521c-29.3927,17.342896 -37.870605,33.236816 -27.055908,50.721313c6.713379,10.853638 17.549561,18.375061 37.28833,25.882263c25.828003,9.82312 43.619263,11.221436 72.946167,5.73291c35.097778,-6.568542 59.461792,-4.520264 83.507202,7.019653c39.315063,18.867981 60.144409,41.761414 73.61084,80.904419c4.671387,13.579102 6.022583,26.194946 5.936401,55.442078c-0.126343,42.748535 -4.113525,56.009216 -21.334106,70.954468c-39.016724,33.862549 -98.797729,-12.635559 -119.705811,-93.108948c-9.020386,-34.718323 -19.230713,-53.553101 -36.787842,-67.862732c-22.981567,-18.730957 -79.930908,-37.985046 -102.03418,-34.497009c-14.110107,2.226685 -35.220581,20.063293 -39.660645,33.510315c-7.481934,22.658752 -2.416626,36.708923 24.083008,66.803345c50.415649,57.253845 64.966064,80.748169 68.248413,110.197998c2.10498,18.887756 -1.781128,26.173157 -17.983887,33.713135c-16.432007,7.646729 -30.032959,9.549377 -44.627808,6.243713c-17.262085,-3.910339 -27.054443,-13.432068 -28.535889,-27.74823c-7.76123,-74.998291 -13.2677,-94.128784 -32.544556,-113.073181c-20.117432,-19.769775 -52.97522,-27.132813 -79.492432,-17.812805c-20.563477,7.227539 -24.184204,17.382263 -19.437988,54.512024c1.708862,13.369202 1.273438,20.96936 -1.447388,25.245117c-4.091431,6.430969 -21.201721,13.77356 -32.095581,13.77356c-17.482544,0 -43.633179,-33.849731 -57.957581,-75.022217c-8.737915,-25.115601 -17.210693,-33.698181 -33.2677,-33.698181c-18.217346,0 -26.973877,6.355957 -33.073975,24.006165c-8.38031,24.249939 -5.03241,46.755676 14.010376,94.179932c18.568359,46.242126 20.91803,51.007202 50.683228,102.770569c16.737244,29.107727 22.115845,41.392517 23.260132,53.127014c1.956299,20.067139 -3.640686,33.80896 -16.446045,40.376953c-19.389832,9.945801 -31.158813,5.552612 -46.539429,-17.37207c-14.943665,-22.274048 -19.424561,-39.677002 -22.86554,-88.803467c-4.890198,-69.815613 -21.666565,-130.978394 -50.151855,-182.839294c-13.890259,-25.28894 -19.085083,-30.313782 -31.339539,-30.313782c-25.560425,0 -45.111145,22.141663 -45.371948,51.385254c-0.141357,15.83374 1.184265,19.539307 13.349182,37.318665c7.428711,10.856689 15.709839,25.199158 18.403137,31.872192c4.947815,12.259033 6.092712,42.766052 2.072266,55.215637c-3.368408,10.43042 -20.482666,16.217896 -47.972839,16.222778c-29.303162,0.005066 -39.915466,-4.269897 -46.864319,-18.878113c-8.385742,-17.629761 -6.549683,-34.464722 7.639343,-70.039551c15.058594,-37.756042 17.175476,-63.741577 6.763306,-83.025757c-6.401855,-11.856384 -20.353027,-22.775574 -29.101135,-22.775574c-18.858337,0 -47.835693,53.465515 -69.272583,127.813416c-11.42804,39.635132 -15.320496,58.565369 -28.773499,139.930969c-8.968445,54.243164 -14.082275,69.521729 -29.090515,86.918457c-21.06781,24.420532 -69.819946,35.770508 -84.806122,19.744385l0,0z"/>
  </g>
 </g>
</svg>