<?xml version="1.0" encoding="UTF-8"?>
<svg width="46px" height="50px" viewBox="0 0 46 50" version="1.1" xmlns="http://www.w3.org/2000/svg" xmlns:xlink="http://www.w3.org/1999/xlink">
    <!-- Generator: Sketch 51.3 (57544) - http://www.bohemiancoding.com/sketch -->
    <title>Packy</title>
    <desc>Created with Sketch.</desc>
    <defs></defs>
    <g id="Page-1" stroke="none" stroke-width="1" fill="none" fill-rule="evenodd">
        <g id="Artboard" transform="translate(-92.000000, -27.000000)">
            <g id="Packy" transform="translate(93.000000, 16.000000)">
                <g id="Group-2" fill-rule="nonzero" stroke="#252525" stroke-linejoin="round" stroke-width="2">
                    <polygon id="Rectangle" fill="#673A02" points="0.0300064879 21.3163014 21.799308 31.3454454 21.799308 59.7931985 0.0300064879 49.7640545"></polygon>
                    <polygon id="Rectangle-Copy" fill="#794400" points="43.0795848 21.5815746 43.0795848 49.6242237 21.6955017 59.6533677 21.6955017 31.2056147"></polygon>
                    <polygon id="Rectangle-Copy-2" fill="#764201" transform="translate(21.521578, 21.316301) rotate(-50.000000) translate(-21.521578, -21.316301) " points="7.70706226 4.85280215 28.0269039 15.7957422 35.3360945 37.7798006 13.5995837 27.9017012"></polygon>
                </g>
                <g id="Group" transform="translate(9.757785, 15.778547)" fill-rule="nonzero">
                    <polygon id="Rectangle-2" fill-opacity="0.3106601" fill="#D8D8D8" points="4.56074025 0.00882134808 25.4451751 9.26951101 20.5536332 11.6562613 0.0937903137 1.76173761"></polygon>
                    <path d="M2.43907478,0.615505122 L23.0529948,10.3110918" id="Path-2" stroke="#252525"></path>
                </g>
                <path d="M28.8581315,42.9757785 L29.1438367,42.9757785 C29.1438367,44.8177212 31.5010109,45.9031836 34.2097501,45.9031836 C36.9184893,45.9031836 38.9530491,44.8177212 38.9530491,42.9757785 L39.2387543,42.9757785 C39.2387543,44.9250188 36.9149727,46.5051903 34.0484429,46.5051903 C31.1819131,46.5051903 28.8581315,44.9250188 28.8581315,42.9757785 Z" id="Oval" fill="#252525" fill-rule="nonzero" transform="translate(34.048443, 44.740484) rotate(-15.000000) translate(-34.048443, -44.740484) "></path>
                <circle id="Oval-2" fill="#252525" fill-rule="nonzero" cx="30.2076125" cy="37.266436" r="1.55709343"></circle>
                <circle id="Oval-2-Copy" fill="#252525" fill-rule="nonzero" cx="36.8512111" cy="34.982699" r="1.55709343"></circle>
                <path d="M6.15202564,37.6211694 C6.1774788,38.0579101 6.03112533,38.7457846 5.71296086,39.6848138 C5.37570652,40.6924022 4.99391487,41.5131506 4.56757448,42.1470836 C4.05214803,42.8973347 3.58127167,43.1853535 3.15493127,43.0111488 C2.93857943,42.9227464 2.73018482,42.7421475 2.5297412,42.4693466 C2.32929758,42.1965457 2.22907728,41.9583362 2.22907728,41.7547109 C2.22907728,41.6592616 2.25771165,41.5850586 2.31498126,41.5320997 C2.21316862,38.7479208 2.17498946,36.8679048 2.20044262,35.8919952 C2.06681354,35.6210419 2,35.4314801 2,35.3233042 C2,35.1705852 2.08590312,35.0720586 2.25771194,35.0277213 C2.41043088,34.981947 2.56951074,34.9928607 2.73495626,35.0604625 C2.88767521,35.1228642 3.01493909,35.2194072 3.11675172,35.3500943 C3.94397936,35.3635757 4.49439564,35.426217 4.76801709,35.53802 C4.91437275,35.5978216 5.05754462,35.6913199 5.19753699,35.8185176 C5.40752554,36.0061325 5.60796615,36.266203 5.79886484,36.5987366 C6.01521668,36.9798504 6.13293577,37.3206579 6.15202564,37.6211694 Z M4.85392107,36.8044111 C4.79028818,36.7020509 4.70756665,36.6300714 4.60575402,36.5884702 C4.40849205,36.5078681 4.02033721,36.5783411 3.44127787,36.7998916 C3.40309813,37.2615379 3.38400855,37.7818829 3.38400855,38.3609422 C3.38400855,39.1881699 3.42218771,40.0564381 3.49854719,40.9657729 C3.83580153,40.2827122 4.14759804,39.547901 4.43394606,38.761317 C4.73938396,37.9125371 4.89210062,37.3258921 4.89210062,37.0013643 C4.89210062,36.9122782 4.87937423,36.8466278 4.85392107,36.8044111 Z M10.1990575,38.7975615 C10.0527019,38.8586623 9.86498765,38.8424118 9.63590922,38.7488092 C9.54045988,38.7098082 9.42910398,38.6547629 9.30183819,38.5836716 C9.1173028,38.5655391 8.95185975,38.5552071 8.8055041,38.5526751 C8.44915988,38.5407002 8.2137217,38.5590366 8.09918249,38.6076846 C8.06100275,39.2538663 8.06100275,40.0110864 8.09918249,40.8793676 C8.13736223,40.8695149 8.23281014,40.8830626 8.38552909,40.9200111 C8.46188856,40.8175829 8.59233404,40.80407 8.77686944,40.879472 C8.96140483,40.954874 9.17616263,41.1317098 9.42114928,41.4099846 C9.66613592,41.6882594 9.78862741,41.9132979 9.78862741,42.0851067 C9.78862741,42.1296497 9.77908262,42.170292 9.75999275,42.2070348 C9.68363327,42.3667327 9.56591418,42.4395328 9.40683195,42.4254374 C9.3113826,42.4182528 9.17139233,42.3690061 8.98685694,42.2776958 C8.80232154,42.1863855 8.68460245,42.1430574 8.63369614,42.14771 C8.48734048,42.1579045 8.30917105,42.1678252 8.09918249,42.1774722 C8.09918249,42.7501682 8.11827207,43.1270336 8.15645181,43.3080795 C8.42370997,43.3536496 8.64642176,43.3682924 8.82459387,43.3520083 C8.85641032,43.3204656 8.88822629,43.292105 8.92004273,43.2669256 C8.98367563,43.2229301 9.09821312,43.2410963 9.26365865,43.3214247 C9.44183075,43.4069533 9.62636338,43.5841653 9.81726207,43.8530661 C10.0081608,44.1219669 10.1036087,44.3550448 10.1036087,44.5523067 C10.1036087,44.7241155 10.0304319,44.8214791 9.88407627,44.8444002 C9.73772061,44.8673214 9.49273764,44.7958545 9.14912001,44.6299976 L8.25190068,44.7119992 C8.21372094,44.7154886 8.13099942,44.7453202 8.00373363,44.8014947 C7.90828428,44.8452164 7.82238116,44.8514767 7.74602169,44.8202759 C7.72056853,44.8098756 7.69193416,44.7949939 7.66011771,44.7756302 C7.32286337,44.5360139 7.01743005,44.1471398 6.7438086,43.6089964 C6.72471874,43.5693797 6.71517395,43.5273005 6.71517395,43.4827575 C6.71517395,43.4636676 6.75017151,43.3507039 6.8201677,43.143863 C6.75017151,41.263545 6.73744512,39.2857547 6.78198815,37.210433 C6.73744512,37.1285996 6.71517395,37.0558676 6.71517395,36.9922347 C6.71517395,36.7822461 6.90925136,36.72792 7.29741202,36.8292547 C7.38013479,36.850329 7.48512749,36.9155007 7.61239328,37.0247717 C7.69511604,37.1031156 7.77465597,37.1769768 7.85101544,37.2463574 L8.99640183,37.351662 C9.02185498,37.355699 9.09503172,37.3474202 9.21593422,37.3268253 C9.29865698,37.3097199 9.39410489,37.3232676 9.50228081,37.3674688 C9.55318713,37.3882694 9.61363747,37.4193329 9.68363366,37.4606602 C9.82362602,37.5433149 9.9620255,37.7096307 10.0988362,37.9596125 C10.2356469,38.2095944 10.3040513,38.4204865 10.3040513,38.5922954 C10.3040513,38.7004713 10.2690537,38.7688926 10.1990575,38.7975615 Z M16.0023485,45.9221672 C15.9578055,45.9866894 15.859176,45.9972945 15.7064571,45.9539827 C15.6937305,45.9487825 15.5569218,45.8992451 15.2960269,45.8053688 C15.34057,46.1099173 15.506013,46.533857 15.792361,47.0772005 C15.9578066,47.2657049 16.0405281,47.4585851 16.0405281,47.6558471 C16.0405281,47.9676483 15.8496323,48.0455456 15.4678349,47.8895414 C15.1051274,47.7413374 14.8569628,47.5476698 14.7233337,47.308533 C14.6787907,47.2266996 14.6501563,47.1290963 14.6374298,47.0157203 C14.6374298,46.9457241 14.6342482,46.8712473 14.6278849,46.7922878 C14.5706153,46.7116175 14.398809,46.2723514 14.112461,45.4744763 C13.5906713,45.33763 12.9479887,45.1832012 12.1843939,45.0111851 C12.1080345,45.1645197 12.0253129,45.3979734 11.9362269,45.7115533 C11.9489535,45.7803864 11.9553166,45.8434367 11.9553166,45.9007064 C11.9553166,46.0725152 11.8980479,46.1811512 11.7835087,46.2266176 C11.6689695,46.272084 11.5321608,46.2623165 11.3730786,46.1973148 C11.1949065,46.1245128 11.0294634,45.9900984 10.8767445,45.7940677 C10.7240255,45.5980369 10.6476672,45.4109383 10.6476672,45.2327662 C10.6476672,45.0736839 10.7208439,44.9604124 10.8671996,44.8929483 C11.3444463,42.6635402 11.923497,40.8957369 12.6043689,39.5894854 C12.5916424,39.5079258 12.5852792,39.4289674 12.5852792,39.3526079 C12.5852792,39.0344434 12.6934535,38.8686586 12.9098053,38.8552483 C12.9988914,38.8534696 13.1134288,38.8811806 13.2534212,38.9383821 C13.5206794,39.0475851 13.7433912,39.1799469 13.9215633,39.3354716 C14.1506417,39.5436134 14.2651792,39.7622202 14.2651792,39.9912986 C14.2651792,40.2012872 14.2079104,40.3656011 14.0933712,40.4842454 C14.2142737,41.6154059 14.4751647,42.9691932 14.8760519,44.5456479 C14.9142317,44.5548851 15.0446771,44.5763697 15.2673923,44.6101026 C15.4010214,44.6265243 15.5028325,44.6490352 15.5728286,44.677636 C15.6555514,44.7114369 15.7223649,44.7578268 15.7732713,44.8168071 C15.9959864,45.0796184 16.1073423,45.3351044 16.1073423,45.5832726 C16.1073423,45.7169017 16.0723447,45.8298654 16.0023485,45.9221672 Z M13.7115758,44.2607352 C13.6033998,43.8156467 13.4315936,42.9754994 13.1961519,41.740268 C12.7443583,42.5419729 12.4771042,43.2790764 12.3943814,43.9516006 L13.7115758,44.2607352 Z M20.335727,48.1700505 C20.3739068,48.2620104 20.3929963,48.3557136 20.3929963,48.4511629 C20.3929963,48.6102452 20.3436816,48.7428116 20.2450506,48.8488661 C20.1464196,48.9549207 20.0318821,49.0051589 19.9014347,48.9995821 C19.7709873,48.9940053 19.5848638,48.9418164 19.3430588,48.8430137 C19.1012538,48.7442111 18.926266,48.6886182 18.8180901,48.6762334 C18.7099141,48.6638487 18.5858319,48.7117776 18.4458395,48.8200216 C18.324937,48.9042493 18.1149516,48.907533 17.815877,48.8298727 C17.6313416,48.7799238 17.4436274,48.639591 17.2527287,48.4088699 C17.06183,48.1781489 16.9313845,47.937134 16.8613883,47.6858181 C16.8486617,47.6360749 16.8422986,47.5921141 16.8422986,47.5539344 C16.8422986,47.4712116 16.8884317,47.3977956 16.9806994,47.3336839 C17.0729671,47.2695723 17.1159187,47.1980378 17.1095554,47.1190783 L16.7086701,41.1710734 C16.7086701,41.1456203 16.6752634,41.0731106 16.6084488,40.9535421 C16.5416343,40.8339737 16.5082275,40.7423744 16.5082275,40.6787415 C16.5082275,40.5896555 16.5559515,40.5232526 16.6514008,40.4795309 C16.7850299,40.4132298 16.9759257,40.4307804 17.224094,40.5321832 C17.4340826,40.6179855 17.636114,40.7450788 17.8301943,40.913467 C18.0242746,41.0818552 18.1467661,41.2368985 18.1976724,41.3786016 C18.2294889,41.4615981 18.2453969,41.5285485 18.2453969,41.5794549 C18.2453969,41.6367245 18.2167625,41.6822931 18.1594929,41.7161621 C18.1022233,41.750031 18.0767705,41.793718 18.0831338,41.8472244 L18.4267497,47.2564049 L18.9994429,47.2613328 C19.1203454,47.2534645 19.2428369,47.2478371 19.366921,47.2444506 C19.4910052,47.241064 19.5944071,47.2562709 19.6771299,47.2900718 C19.9062083,47.3836743 20.1257385,47.6769976 20.335727,48.1700505 Z" id="DEAL" fill="#252525"></path>
            </g>
        </g>
    </g>
</svg>