<?xml version="1.0" encoding="UTF-8"?>
<svg width="62px" height="118px" viewBox="0 0 62 118" version="1.1" xmlns="http://www.w3.org/2000/svg" xmlns:xlink="http://www.w3.org/1999/xlink">
    <!-- Generator: Sketch 48.2 (47327) - http://www.bohemiancoding.com/sketch -->
    <title>Artboard</title>
    <desc>Created with Sketch.</desc>
    <defs>
        <linearGradient x1="50%" y1="0%" x2="50%" y2="100%" id="linearGradient-1">
            <stop stop-color="#F7F27C" offset="0%"></stop>
            <stop stop-color="#E2D74D" offset="100%"></stop>
        </linearGradient>
        <linearGradient x1="50%" y1="0%" x2="50%" y2="76.626462%" id="linearGradient-2">
            <stop stop-color="#C8C8C8" offset="0%"></stop>
            <stop stop-color="#979797" offset="100%"></stop>
        </linearGradient>
    </defs>
    <g id="Page-1" stroke="none" stroke-width="1" fill="none" fill-rule="evenodd">
        <g id="Artboard">
            <path d="M10,42.5 L52,42.5 C57.5228475,42.5 62,46.9771525 62,52.5 L62,118 L0,118 L0,52.5 C-6.76353751e-16,46.9771525 4.4771525,42.5 10,42.5 Z" id="Rectangle" fill="url(#linearGradient-1)"></path>
            <path d="M15.25,85.25 L47.3903174,85.25" id="Line-Copy-2" stroke="#C6BD44" stroke-width="6" stroke-linecap="round"></path>
            <path d="M15.25,73.75 L47.3903174,73.75" id="Line-Copy" stroke="#C6BD44" stroke-width="6" stroke-linecap="round"></path>
            <path d="M15.25,62.25 L47.3903174,62.25" id="Line" stroke="#C6BD44" stroke-width="6" stroke-linecap="round"></path>
            <path d="M17,42.75 L8.5,42.75 L8.5,22.75 C8.5,10.1855219 18.6855219,0 31.25,0 C43.8144781,0 54,10.1855219 54,22.75 L54,42.75 L45.5,42.75 L45.5,22.75 C45.5,14.8799423 39.1200577,8.5 31.25,8.5 C23.3799423,8.5 17,14.8799423 17,22.75 L17,42.75 Z" id="Combined-Shape" fill="url(#linearGradient-2)" fill-rule="nonzero"></path>
        </g>
    </g>
</svg>