<?xml version="1.0" encoding="UTF-8"?>
<svg width="1000px" height="1000px" viewBox="0 0 1000 1000" version="1.1" xmlns="http://www.w3.org/2000/svg" xmlns:xlink="http://www.w3.org/1999/xlink">
    <!-- Generator: Sketch 55.2 (78181) - https://sketchapp.com -->
    <title>s</title>
    <desc>Created with Sketch.</desc>
    <defs>
        <rect id="path-1" x="0" y="0" width="1000" height="1000" rx="200"></rect>
        <linearGradient x1="27.8074371%" y1="0%" x2="72.1925629%" y2="100%" id="linearGradient-3">
            <stop stop-color="#FFFFFF" offset="0%"></stop>
            <stop stop-color="#7CB8FF" offset="100%"></stop>
        </linearGradient>
    </defs>
    <g id="s" stroke="none" stroke-width="1" fill="none" fill-rule="evenodd">
        <g id="Group-2">
            <mask id="mask-2" fill="white">
                <use xlink:href="#path-1"></use>
            </mask>
            <use id="Rectangle-9" fill="#B019E2" xlink:href="#path-1"></use>
            <polygon id="Rectangle-10" fill="#704682" mask="url(#mask-2)" transform="translate(300.672491, 580.251919) rotate(68.000000) translate(-300.672491, -580.251919) " points="-83.198723 107.413913 2.32378914 457.138277 154.077682 532.728292 280.698968 443.748933 343.262944 260.606985 490.962679 201.740233 648.788672 344.684968 684.543704 622.926111 668.352283 1053.08993 -82.4120259 990.801553"></polygon>
        </g>
        <g id="Group" transform="translate(508.249213, 503.354368) rotate(-22.000000) translate(-508.249213, -503.354368) translate(258.249213, 126.854368)">
            <path d="M262.806667,329.56 C378.554505,329.56 472.386667,423.454842 472.386667,539.28 C472.386667,653.993487 380.347033,747.195605 266.133333,748.974115 L266.133333,749 L9.09494702e-13,749 L9.09494702e-13,723.12 C8.52651283e-13,687.773776 28.653776,659.12 64,659.12 L262.806667,659.12 C328.501385,658.31027 381.757477,605.018603 382.566667,539.28 C381.757477,473.541397 328.501385,420.24973 262.806667,419.44 L236.193333,419.44 C120.445495,419.44 26.6133333,325.545158 26.6133333,209.72 C26.6133333,95.0065133 118.652967,1.80439504 232.866667,0.0258847244 L232.866667,2.72848411e-12 L499,2.72848411e-12 L499,25.88 C499,61.226224 470.346224,89.88 435,89.88 L236.193333,89.88 C170.498615,90.6897297 117.242523,143.981397 116.433333,209.72 C117.242523,275.458603 170.498615,328.75027 236.193333,329.56 L262.806667,329.56 Z" id="Combined-Shape-Copy" stroke="#9651B0" stroke-width="20" fill="url(#linearGradient-3)"></path>
            <path d="M262.959136,332.992447 C378.706973,332.992447 472.539136,426.887289 472.539136,542.712447 C472.539136,657.425933 380.499501,750.628052 266.285802,752.406562 L266.285802,752.432447 L0.15246885,752.432447 L0.15246885,726.552447 C0.15246885,691.206223 28.8062449,662.552447 64.1524689,662.552447 L262.959136,662.552447 C328.653854,661.742717 381.909946,608.45105 382.719136,542.712447 C381.909946,476.973844 328.653854,423.682177 262.959136,422.872447 L236.345802,422.872447 C120.597964,422.872447 26.7658022,328.977605 26.7658022,213.152447 C26.7658022,98.4389601 118.805436,5.23684182 233.019136,3.45833151 L233.019136,3.43244679 L499.152469,3.43244679 L499.152469,29.3124468 C499.152469,64.6586708 470.498693,93.3124468 435.152469,93.3124468 L236.345802,93.3124468 C170.651083,94.1221765 117.394991,147.413844 116.585802,213.152447 C117.394991,278.89105 170.651083,332.182717 236.345802,332.992447 L262.959136,332.992447 Z" id="Combined-Shape" fill="#40BBFF"></path>
        </g>
    </g>
</svg>