<svg width="96" height="101" viewBox="0 0 96 101" fill="none" xmlns="http://www.w3.org/2000/svg">
<path fill-rule="evenodd" clip-rule="evenodd" d="M21.579 73.5C19.179 73 16.279 72.2 13.879 70C8.37899 65.1 6.67899 57 2.87899 59.1C-1.02101 61.2 -0.921011 74.3 11.279 78.3C15.479 79.7 19.279 79.7 22.379 79.6C23.179 79.6 30.079 78.9 32.479 75.5C34.879 72.1 33.179 71.2 32.379 70.8C31.479 70.3 24.979 74.1 21.579 73.5Z" fill="#1B1817"/>
<path fill-rule="evenodd" clip-rule="evenodd" d="M37.379 81.2C35.579 82.4 29.379 86.8 21.479 89.3L21.079 89.4C20.679 89.5 20.479 90 20.679 90.4C22.379 92.8 25.479 97.6 19.979 99.3C14.679 101 4.77899 86.9 8.97899 83.2C10.879 81.8 12.579 82.5 13.479 82.9C13.979 83.1 14.479 83.1 14.979 83C16.179 82.6 18.379 81.8 20.079 80.9C24.379 78.7 25.379 77.8 27.379 76.3C29.379 74.8 33.979 71.1 37.679 74.3C40.879 77 39.079 80 37.379 81.2Z" fill="#1B1817"/>
<path fill-rule="evenodd" clip-rule="evenodd" d="M53.279 60.4C53.779 60.8 59.879 68 61.879 66.2C64.279 64.1 67.579 60 71.179 63.3C74.779 66.6 67.979 72.2 65.079 73.7C58.179 76.8 52.579 70.9 51.379 69.3C50.179 67.7 48.079 65 48.079 62.4C48.179 59.6 51.579 58.9 53.279 60.4Z" fill="#1B1817"/>
<path fill-rule="evenodd" clip-rule="evenodd" d="M45.879 76.4C47.079 75.5 48.279 74 49.879 71.7C51.179 69.8 52.579 66.1 52.579 66.1C53.479 63.6 54.079 58.8 50.779 58.9C48.579 59 46.579 58.7 43.179 58.2C37.179 57 36.079 56.2 33.579 60.3C30.879 65.1 23.979 68.6 32.479 76.9C32.479 76.9 37.379 80.7 43.279 86.5C47.279 90.4 53.579 96 55.779 97.9C56.279 98.3 56.879 98.5 57.479 98.6C67.179 99.5 74.379 98.5 74.379 94.2C74.379 87 60.079 89.5 60.079 89.5C60.079 89.5 55.479 85.6 53.379 83.7L45.879 76.4Z" fill="#1B1817"/>
<path fill-rule="evenodd" clip-rule="evenodd" d="M50.279 69.7C50.279 69.7 52.179 67.2 47.879 64.5C43.379 61.6 41.679 64.8 39.879 67.2C37.879 70.3 39.879 71.8 41.879 73.6C43.479 75.1 44.979 76.3 44.979 76.3C44.979 76.3 48.079 74.2 50.279 69.7Z" fill="white"/>
<path fill-rule="evenodd" clip-rule="evenodd" d="M29.879 68.0999C32.079 70.8999 35.479 74.3999 31.179 77.2999C25.279 80.5999 20.379 70.5999 19.379 67.0999C18.479 63.9999 21.079 61.9999 23.279 60.2999C27.579 57.1999 31.179 54.3999 35.179 55.8999C40.179 57.6999 36.579 61.6999 34.079 63.4999C32.579 64.5999 31.079 65.7999 29.979 66.4999C29.679 66.9999 29.579 67.5999 29.879 68.0999Z" fill="#1B1817"/>
<path fill-rule="evenodd" clip-rule="evenodd" d="M52.779 9.69998C50.479 9.29998 48.079 9.09998 45.279 9.29998C40.579 9.49998 36.079 11.2 36.079 11.2L23.979 3.29998C23.579 3.09998 23.079 3.39998 23.179 3.79998L25.279 21.7C25.879 20.9 14.679 34.5 21.779 45.9C28.879 57.3 43.979 62.4 62.779 58.7C81.579 55 85.979 44.2 84.779 38.5C83.579 32.8 76.479 30.7 76.479 30.7C76.479 30.7 76.379 26.2 73.179 20.7C71.279 17.4 64.879 12.7 64.879 12.7L62.279 1.99998C62.179 1.59998 61.679 1.49998 61.379 1.69998L52.779 9.69998Z" fill="#1B1817"/>
<path fill-rule="evenodd" clip-rule="evenodd" d="M76.179 31.0999C76.179 31.0999 83.079 32.8999 84.279 38.5999C85.479 44.2999 80.679 54.5999 62.079 58.1999C37.879 63.1999 26.379 48.7999 33.079 38.1999C39.779 27.4999 51.279 36.5999 59.679 35.9999C66.879 35.4999 67.679 29.1999 76.179 31.0999Z" fill="white"/>
<path fill-rule="evenodd" clip-rule="evenodd" d="M44.679 41.7999C44.679 41.3999 45.079 41.0999 45.479 41.1999C47.379 41.8999 52.779 43.4999 58.779 43.8999C64.179 44.1999 67.379 43.8999 68.879 43.5999C69.379 43.4999 69.779 43.9999 69.579 44.4999C68.679 47.1999 64.879 54.6999 54.379 54.0999C45.279 53.0999 44.379 46.6999 44.679 41.7999Z" fill="white"/>
<path fill-rule="evenodd" clip-rule="evenodd" d="M59.279 33.4C61.379 33.4 63.579 33.6 63.679 34.3C63.779 35.7 62.279 38.5 60.679 38.6C58.879 38.8 54.679 36.3 54.679 34.7C54.579 33.5 57.279 33.4 59.279 33.4Z" fill="#1B1817"/>
<path fill-rule="evenodd" clip-rule="evenodd" d="M71.079 21.7C73.979 26.2 74.079 31.3 71.279 33.1C68.479 34.9 63.879 32.8 60.879 28.3C57.979 23.8 57.879 18.7 60.679 16.9C63.479 15 68.179 17.2 71.079 21.7Z" fill="white"/>
<path fill-rule="evenodd" clip-rule="evenodd" d="M46.279 24.5C49.279 28.9 49.079 34.3 46.379 36.2C43.079 38.1 38.679 36.7 35.679 32.3C32.579 27.9 32.379 22.2 35.479 20C38.579 17.7 43.279 20.1 46.279 24.5Z" fill="white"/>
</svg>
