<?xml version="1.0" encoding="UTF-8"?>
<svg width="3200px" height="2000px" viewBox="0 0 3200 2000" version="1.1" xmlns="http://www.w3.org/2000/svg" xmlns:xlink="http://www.w3.org/1999/xlink">
    <!-- Generator: Sketch 53.2 (72643) - https://sketchapp.com -->
    <title>Artboard</title>
    <desc>Created with Sketch.</desc>
    <g id="Artboard" stroke="none" stroke-width="1" fill="none" fill-rule="evenodd">
        <path d="M1600,2.27373675e-13 L3200,2.27373675e-13 L3200,996.5 L3200,1996.5 L1600,1996.5 L0,1996.5 L0,1000 L0,0 L1600,0 Z" id="Background" fill="#21D33D"></path>
        <g id="2-2" transform="translate(1277.000000, 982.500000)" fill="#057508">
            <g id="Group" transform="translate(447.000000, 59.000000)">
                <polygon id="Rectangle" points="45.0394808 23 48.829949 31 57 23 54.6203735 39 40.6598979 39 37 25.9066362 42.8764386 30.9022765"></polygon>
                <polygon id="Rectangle" points="121.039481 240 124.829949 248 133 240 130.620373 256 116.659898 256 113 242.906636 118.876439 247.902276"></polygon>
                <polygon id="Rectangle" points="141.039481 94 144.829949 102 153 94 150.620373 110 136.659898 110 133 96.9066362 138.876439 101.902276"></polygon>
                <polygon id="Rectangle" points="212.039481 0 215.829949 8 224 0 221.620373 16 207.659898 16 204 2.90663625 209.876439 7.90227646"></polygon>
                <polygon id="Rectangle" points="404.039481 182 407.829949 190 416 182 413.620373 198 399.659898 198 396 184.906636 401.876439 189.902276"></polygon>
                <polygon id="Rectangle" points="397.039481 7 400.829949 15 409 7 406.620373 23 392.659898 23 389 9.90663625 394.876439 14.9022765"></polygon>
                <polygon id="Rectangle" points="259.039481 202 262.829949 210 271 202 268.620373 218 254.659898 218 251 204.906636 256.876439 209.902276"></polygon>
                <polygon id="Rectangle" points="8.03948081 209 11.829949 217 20 209 17.6203735 225 3.65989792 225 3.46944695e-17 211.906636 5.87643863 216.902276"></polygon>
                <polygon id="Rectangle" points="325.039481 90 328.829949 98 337 90 334.620373 106 320.659898 106 317 92.9066362 322.876439 97.9022765"></polygon>
            </g>
            <g id="Group" transform="translate(44.000000, 363.000000)">
                <polygon id="Rectangle" points="45.0394808 23 48.829949 31 57 23 54.6203735 39 40.6598979 39 37 25.9066362 42.8764386 30.9022765"></polygon>
                <polygon id="Rectangle" points="121.039481 240 124.829949 248 133 240 130.620373 256 116.659898 256 113 242.906636 118.876439 247.902276"></polygon>
                <polygon id="Rectangle" points="141.039481 94 144.829949 102 153 94 150.620373 110 136.659898 110 133 96.9066362 138.876439 101.902276"></polygon>
                <polygon id="Rectangle" points="212.039481 0 215.829949 8 224 0 221.620373 16 207.659898 16 204 2.90663625 209.876439 7.90227646"></polygon>
                <polygon id="Rectangle" points="404.039481 182 407.829949 190 416 182 413.620373 198 399.659898 198 396 184.906636 401.876439 189.902276"></polygon>
                <polygon id="Rectangle" points="397.039481 7 400.829949 15 409 7 406.620373 23 392.659898 23 389 9.90663625 394.876439 14.9022765"></polygon>
                <polygon id="Rectangle" points="259.039481 202 262.829949 210 271 202 268.620373 218 254.659898 218 251 204.906636 256.876439 209.902276"></polygon>
                <polygon id="Rectangle" points="8.03948081 209 11.829949 217 20 209 17.6203735 225 3.65989792 225 3.46944695e-17 211.906636 5.87643863 216.902276"></polygon>
                <polygon id="Rectangle" points="325.039481 90 328.829949 98 337 90 334.620373 106 320.659898 106 317 92.9066362 322.876439 97.9022765"></polygon>
            </g>
            <g id="Group" transform="translate(983.000000, 156.000000)">
                <polygon id="Rectangle" points="45.0394808 23 48.829949 31 57 23 54.6203735 39 40.6598979 39 37 25.9066362 42.8764386 30.9022765"></polygon>
                <polygon id="Rectangle" points="121.039481 240 124.829949 248 133 240 130.620373 256 116.659898 256 113 242.906636 118.876439 247.902276"></polygon>
                <polygon id="Rectangle" points="141.039481 94 144.829949 102 153 94 150.620373 110 136.659898 110 133 96.9066362 138.876439 101.902276"></polygon>
                <polygon id="Rectangle" points="212.039481 0 215.829949 8 224 0 221.620373 16 207.659898 16 204 2.90663625 209.876439 7.90227646"></polygon>
                <polygon id="Rectangle" points="404.039481 182 407.829949 190 416 182 413.620373 198 399.659898 198 396 184.906636 401.876439 189.902276"></polygon>
                <polygon id="Rectangle" points="397.039481 7 400.829949 15 409 7 406.620373 23 392.659898 23 389 9.90663625 394.876439 14.9022765"></polygon>
                <polygon id="Rectangle" points="259.039481 202 262.829949 210 271 202 268.620373 218 254.659898 218 251 204.906636 256.876439 209.902276"></polygon>
                <polygon id="Rectangle" points="8.03948081 209 11.829949 217 20 209 17.6203735 225 3.65989792 225 3.46944695e-17 211.906636 5.87643863 216.902276"></polygon>
                <polygon id="Rectangle" points="325.039481 90 328.829949 98 337 90 334.620373 106 320.659898 106 317 92.9066362 322.876439 97.9022765"></polygon>
            </g>
            <g id="Group" transform="translate(499.000000, 363.000000)">
                <polygon id="Rectangle" points="45.0394808 23 48.829949 31 57 23 54.6203735 39 40.6598979 39 37 25.9066362 42.8764386 30.9022765"></polygon>
                <polygon id="Rectangle" points="121.039481 240 124.829949 248 133 240 130.620373 256 116.659898 256 113 242.906636 118.876439 247.902276"></polygon>
                <polygon id="Rectangle" points="141.039481 94 144.829949 102 153 94 150.620373 110 136.659898 110 133 96.9066362 138.876439 101.902276"></polygon>
                <polygon id="Rectangle" points="212.039481 0 215.829949 8 224 0 221.620373 16 207.659898 16 204 2.90663625 209.876439 7.90227646"></polygon>
                <polygon id="Rectangle" points="404.039481 182 407.829949 190 416 182 413.620373 198 399.659898 198 396 184.906636 401.876439 189.902276"></polygon>
                <polygon id="Rectangle" points="397.039481 7 400.829949 15 409 7 406.620373 23 392.659898 23 389 9.90663625 394.876439 14.9022765"></polygon>
                <polygon id="Rectangle" points="259.039481 202 262.829949 210 271 202 268.620373 218 254.659898 218 251 204.906636 256.876439 209.902276"></polygon>
                <polygon id="Rectangle" points="8.03948081 209 11.829949 217 20 209 17.6203735 225 3.65989792 225 3.46944695e-17 211.906636 5.87643863 216.902276"></polygon>
                <polygon id="Rectangle" points="325.039481 90 328.829949 98 337 90 334.620373 106 320.659898 106 317 92.9066362 322.876439 97.9022765"></polygon>
            </g>
            <g id="Group" transform="translate(1399.000000, 28.000000)">
                <polygon id="Rectangle" points="45.0394808 23 48.829949 31 57 23 54.6203735 39 40.6598979 39 37 25.9066362 42.8764386 30.9022765"></polygon>
                <polygon id="Rectangle" points="121.039481 240 124.829949 248 133 240 130.620373 256 116.659898 256 113 242.906636 118.876439 247.902276"></polygon>
                <polygon id="Rectangle" points="141.039481 94 144.829949 102 153 94 150.620373 110 136.659898 110 133 96.9066362 138.876439 101.902276"></polygon>
                <polygon id="Rectangle" points="212.039481 0 215.829949 8 224 0 221.620373 16 207.659898 16 204 2.90663625 209.876439 7.90227646"></polygon>
                <polygon id="Rectangle" points="404.039481 182 407.829949 190 416 182 413.620373 198 399.659898 198 396 184.906636 401.876439 189.902276"></polygon>
                <polygon id="Rectangle" points="397.039481 7 400.829949 15 409 7 406.620373 23 392.659898 23 389 9.90663625 394.876439 14.9022765"></polygon>
                <polygon id="Rectangle" points="259.039481 202 262.829949 210 271 202 268.620373 218 254.659898 218 251 204.906636 256.876439 209.902276"></polygon>
                <polygon id="Rectangle" points="8.03948081 209 11.829949 217 20 209 17.6203735 225 3.65989792 225 3.46944695e-17 211.906636 5.87643863 216.902276"></polygon>
                <polygon id="Rectangle" points="325.039481 90 328.829949 98 337 90 334.620373 106 320.659898 106 317 92.9066362 322.876439 97.9022765"></polygon>
            </g>
            <g id="Group" transform="translate(915.000000, 26.000000)">
                <polygon id="Rectangle" points="121.039481 38 124.829949 46 133 38 130.620373 54 116.659898 54 113 40.9066362 118.876439 45.9022765"></polygon>
                <polygon id="Rectangle" points="259.039481 0 262.829949 8 271 0 268.620373 16 254.659898 16 251 2.90663625 256.876439 7.90227646"></polygon>
                <polygon id="Rectangle" points="8.03948081 7 11.829949 15 20 7 17.6203735 23 3.65989792 23 3.46944695e-17 9.90663625 5.87643863 14.9022765"></polygon>
            </g>
            <g id="Group" transform="translate(1010.000000, 480.000000)">
                <polygon id="Rectangle" points="45.0394808 23 48.829949 31 57 23 54.6203735 39 40.6598979 39 37 25.9066362 42.8764386 30.9022765"></polygon>
                <polygon id="Rectangle" points="121.039481 240 124.829949 248 133 240 130.620373 256 116.659898 256 113 242.906636 118.876439 247.902276"></polygon>
                <polygon id="Rectangle" points="141.039481 94 144.829949 102 153 94 150.620373 110 136.659898 110 133 96.9066362 138.876439 101.902276"></polygon>
                <polygon id="Rectangle" points="212.039481 0 215.829949 8 224 0 221.620373 16 207.659898 16 204 2.90663625 209.876439 7.90227646"></polygon>
                <polygon id="Rectangle" points="404.039481 182 407.829949 190 416 182 413.620373 198 399.659898 198 396 184.906636 401.876439 189.902276"></polygon>
                <polygon id="Rectangle" points="397.039481 7 400.829949 15 409 7 406.620373 23 392.659898 23 389 9.90663625 394.876439 14.9022765"></polygon>
                <polygon id="Rectangle" points="259.039481 202 262.829949 210 271 202 268.620373 218 254.659898 218 251 204.906636 256.876439 209.902276"></polygon>
                <polygon id="Rectangle" points="8.03948081 209 11.829949 217 20 209 17.6203735 225 3.65989792 225 3.46944695e-17 211.906636 5.87643863 216.902276"></polygon>
                <polygon id="Rectangle" points="325.039481 90 328.829949 98 337 90 334.620373 106 320.659898 106 317 92.9066362 322.876439 97.9022765"></polygon>
            </g>
            <g id="Group" transform="translate(1484.000000, 315.000000)">
                <polygon id="Rectangle" points="45.0394808 23 48.829949 31 57 23 54.6203735 39 40.6598979 39 37 25.9066362 42.8764386 30.9022765"></polygon>
                <polygon id="Rectangle" points="121.039481 240 124.829949 248 133 240 130.620373 256 116.659898 256 113 242.906636 118.876439 247.902276"></polygon>
                <polygon id="Rectangle" points="141.039481 94 144.829949 102 153 94 150.620373 110 136.659898 110 133 96.9066362 138.876439 101.902276"></polygon>
                <polygon id="Rectangle" points="212.039481 0 215.829949 8 224 0 221.620373 16 207.659898 16 204 2.90663625 209.876439 7.90227646"></polygon>
                <polygon id="Rectangle" points="404.039481 182 407.829949 190 416 182 413.620373 198 399.659898 198 396 184.906636 401.876439 189.902276"></polygon>
                <polygon id="Rectangle" points="397.039481 7 400.829949 15 409 7 406.620373 23 392.659898 23 389 9.90663625 394.876439 14.9022765"></polygon>
                <polygon id="Rectangle" points="259.039481 202 262.829949 210 271 202 268.620373 218 254.659898 218 251 204.906636 256.876439 209.902276"></polygon>
                <polygon id="Rectangle" points="8.03948081 209 11.829949 217 20 209 17.6203735 225 3.65989792 225 3.46944695e-17 211.906636 5.87643863 216.902276"></polygon>
                <polygon id="Rectangle" points="325.039481 90 328.829949 98 337 90 334.620373 106 320.659898 106 317 92.9066362 322.876439 97.9022765"></polygon>
            </g>
            <g id="Group" transform="translate(364.000000, 704.000000)">
                <polygon id="Rectangle" points="45.0394808 23 48.829949 31 57 23 54.6203735 39 40.6598979 39 37 25.9066362 42.8764386 30.9022765"></polygon>
                <polygon id="Rectangle" points="121.039481 240 124.829949 248 133 240 130.620373 256 116.659898 256 113 242.906636 118.876439 247.902276"></polygon>
                <polygon id="Rectangle" points="141.039481 94 144.829949 102 153 94 150.620373 110 136.659898 110 133 96.9066362 138.876439 101.902276"></polygon>
                <polygon id="Rectangle" points="212.039481 0 215.829949 8 224 0 221.620373 16 207.659898 16 204 2.90663625 209.876439 7.90227646"></polygon>
                <polygon id="Rectangle" points="404.039481 182 407.829949 190 416 182 413.620373 198 399.659898 198 396 184.906636 401.876439 189.902276"></polygon>
                <polygon id="Rectangle" points="397.039481 7 400.829949 15 409 7 406.620373 23 392.659898 23 389 9.90663625 394.876439 14.9022765"></polygon>
                <polygon id="Rectangle" points="259.039481 202 262.829949 210 271 202 268.620373 218 254.659898 218 251 204.906636 256.876439 209.902276"></polygon>
                <polygon id="Rectangle" points="8.03948081 209 11.829949 217 20 209 17.6203735 225 3.65989792 225 3.46944695e-17 211.906636 5.87643863 216.902276"></polygon>
                <polygon id="Rectangle" points="325.039481 90 328.829949 98 337 90 334.620373 106 320.659898 106 317 92.9066362 322.876439 97.9022765"></polygon>
            </g>
            <g id="Group" transform="translate(1446.000000, 736.000000)">
                <polygon id="Rectangle" points="45.0394808 23 48.829949 31 57 23 54.6203735 39 40.6598979 39 37 25.9066362 42.8764386 30.9022765"></polygon>
                <polygon id="Rectangle" points="121.039481 240 124.829949 248 133 240 130.620373 256 116.659898 256 113 242.906636 118.876439 247.902276"></polygon>
                <polygon id="Rectangle" points="141.039481 94 144.829949 102 153 94 150.620373 110 136.659898 110 133 96.9066362 138.876439 101.902276"></polygon>
                <polygon id="Rectangle" points="212.039481 0 215.829949 8 224 0 221.620373 16 207.659898 16 204 2.90663625 209.876439 7.90227646"></polygon>
                <polygon id="Rectangle" points="404.039481 182 407.829949 190 416 182 413.620373 198 399.659898 198 396 184.906636 401.876439 189.902276"></polygon>
                <polygon id="Rectangle" points="397.039481 7 400.829949 15 409 7 406.620373 23 392.659898 23 389 9.90663625 394.876439 14.9022765"></polygon>
                <polygon id="Rectangle" points="259.039481 202 262.829949 210 271 202 268.620373 218 254.659898 218 251 204.906636 256.876439 209.902276"></polygon>
                <polygon id="Rectangle" points="8.03948081 209 11.829949 217 20 209 17.6203735 225 3.65989792 225 3.46944695e-17 211.906636 5.87643863 216.902276"></polygon>
                <polygon id="Rectangle" points="325.039481 90 328.829949 98 337 90 334.620373 106 320.659898 106 317 92.9066362 322.876439 97.9022765"></polygon>
            </g>
            <g id="Group" transform="translate(863.000000, 802.000000)">
                <polygon id="Rectangle" points="45.0394808 23 48.829949 31 57 23 54.6203735 39 40.6598979 39 37 25.9066362 42.8764386 30.9022765"></polygon>
                <polygon id="Rectangle" points="141.039481 94 144.829949 102 153 94 150.620373 110 136.659898 110 133 96.9066362 138.876439 101.902276"></polygon>
                <polygon id="Rectangle" points="212.039481 0 215.829949 8 224 0 221.620373 16 207.659898 16 204 2.90663625 209.876439 7.90227646"></polygon>
                <polygon id="Rectangle" points="404.039481 182 407.829949 190 416 182 413.620373 198 399.659898 198 396 184.906636 401.876439 189.902276"></polygon>
                <polygon id="Rectangle" points="397.039481 7 400.829949 15 409 7 406.620373 23 392.659898 23 389 9.90663625 394.876439 14.9022765"></polygon>
                <polygon id="Rectangle" points="259.039481 202 262.829949 210 271 202 268.620373 218 254.659898 218 251 204.906636 256.876439 209.902276"></polygon>
                <polygon id="Rectangle" points="8.03948081 209 11.829949 217 20 209 17.6203735 225 3.65989792 225 3.46944695e-17 211.906636 5.87643863 216.902276"></polygon>
                <polygon id="Rectangle" points="325.039481 90 328.829949 98 337 90 334.620373 106 320.659898 106 317 92.9066362 322.876439 97.9022765"></polygon>
            </g>
            <g id="Group">
                <polygon id="Rectangle" points="45.0394808 23 48.829949 31 57 23 54.6203735 39 40.6598979 39 37 25.9066362 42.8764386 30.9022765"></polygon>
                <polygon id="Rectangle" points="121.039481 240 124.829949 248 133 240 130.620373 256 116.659898 256 113 242.906636 118.876439 247.902276"></polygon>
                <polygon id="Rectangle" points="141.039481 94 144.829949 102 153 94 150.620373 110 136.659898 110 133 96.9066362 138.876439 101.902276"></polygon>
                <polygon id="Rectangle" points="212.039481 0 215.829949 8 224 0 221.620373 16 207.659898 16 204 2.90663625 209.876439 7.90227646"></polygon>
                <polygon id="Rectangle" points="404.039481 182 407.829949 190 416 182 413.620373 198 399.659898 198 396 184.906636 401.876439 189.902276"></polygon>
                <polygon id="Rectangle" points="259.039481 202 262.829949 210 271 202 268.620373 218 254.659898 218 251 204.906636 256.876439 209.902276"></polygon>
                <polygon id="Rectangle" points="8.03948081 209 11.829949 217 20 209 17.6203735 225 3.65989792 225 3.46944695e-17 211.906636 5.87643863 216.902276"></polygon>
                <polygon id="Rectangle" points="325.039481 90 328.829949 98 337 90 334.620373 106 320.659898 106 317 92.9066362 322.876439 97.9022765"></polygon>
            </g>
        </g>
        <g id="2-1" transform="translate(1277.000000, -190.000000)" fill="#057508">
            <g id="Group" transform="translate(447.000000, 235.000000)">
                <polygon id="Rectangle" points="45.0394808 23 48.829949 31 57 23 54.6203735 39 40.6598979 39 37 25.9066362 42.8764386 30.9022765"></polygon>
                <polygon id="Rectangle" points="121.039481 240 124.829949 248 133 240 130.620373 256 116.659898 256 113 242.906636 118.876439 247.902276"></polygon>
                <polygon id="Rectangle" points="141.039481 94 144.829949 102 153 94 150.620373 110 136.659898 110 133 96.9066362 138.876439 101.902276"></polygon>
                <polygon id="Rectangle" points="212.039481 0 215.829949 8 224 0 221.620373 16 207.659898 16 204 2.90663625 209.876439 7.90227646"></polygon>
                <polygon id="Rectangle" points="404.039481 182 407.829949 190 416 182 413.620373 198 399.659898 198 396 184.906636 401.876439 189.902276"></polygon>
                <polygon id="Rectangle" points="397.039481 7 400.829949 15 409 7 406.620373 23 392.659898 23 389 9.90663625 394.876439 14.9022765"></polygon>
                <polygon id="Rectangle" points="259.039481 202 262.829949 210 271 202 268.620373 218 254.659898 218 251 204.906636 256.876439 209.902276"></polygon>
                <polygon id="Rectangle" points="8.03948081 209 11.829949 217 20 209 17.6203735 225 3.65989792 225 3.46944695e-17 211.906636 5.87643863 216.902276"></polygon>
                <polygon id="Rectangle" points="325.039481 90 328.829949 98 337 90 334.620373 106 320.659898 106 317 92.9066362 322.876439 97.9022765"></polygon>
            </g>
            <g id="Group" transform="translate(44.000000, 539.000000)">
                <polygon id="Rectangle" points="45.0394808 23 48.829949 31 57 23 54.6203735 39 40.6598979 39 37 25.9066362 42.8764386 30.9022765"></polygon>
                <polygon id="Rectangle" points="121.039481 240 124.829949 248 133 240 130.620373 256 116.659898 256 113 242.906636 118.876439 247.902276"></polygon>
                <polygon id="Rectangle" points="141.039481 94 144.829949 102 153 94 150.620373 110 136.659898 110 133 96.9066362 138.876439 101.902276"></polygon>
                <polygon id="Rectangle" points="212.039481 0 215.829949 8 224 0 221.620373 16 207.659898 16 204 2.90663625 209.876439 7.90227646"></polygon>
                <polygon id="Rectangle" points="404.039481 182 407.829949 190 416 182 413.620373 198 399.659898 198 396 184.906636 401.876439 189.902276"></polygon>
                <polygon id="Rectangle" points="397.039481 7 400.829949 15 409 7 406.620373 23 392.659898 23 389 9.90663625 394.876439 14.9022765"></polygon>
                <polygon id="Rectangle" points="259.039481 202 262.829949 210 271 202 268.620373 218 254.659898 218 251 204.906636 256.876439 209.902276"></polygon>
                <polygon id="Rectangle" points="8.03948081 209 11.829949 217 20 209 17.6203735 225 3.65989792 225 3.46944695e-17 211.906636 5.87643863 216.902276"></polygon>
                <polygon id="Rectangle" points="325.039481 90 328.829949 98 337 90 334.620373 106 320.659898 106 317 92.9066362 322.876439 97.9022765"></polygon>
            </g>
            <g id="Group" transform="translate(983.000000, 332.000000)">
                <polygon id="Rectangle" points="45.0394808 23 48.829949 31 57 23 54.6203735 39 40.6598979 39 37 25.9066362 42.8764386 30.9022765"></polygon>
                <polygon id="Rectangle" points="121.039481 240 124.829949 248 133 240 130.620373 256 116.659898 256 113 242.906636 118.876439 247.902276"></polygon>
                <polygon id="Rectangle" points="141.039481 94 144.829949 102 153 94 150.620373 110 136.659898 110 133 96.9066362 138.876439 101.902276"></polygon>
                <polygon id="Rectangle" points="212.039481 0 215.829949 8 224 0 221.620373 16 207.659898 16 204 2.90663625 209.876439 7.90227646"></polygon>
                <polygon id="Rectangle" points="404.039481 182 407.829949 190 416 182 413.620373 198 399.659898 198 396 184.906636 401.876439 189.902276"></polygon>
                <polygon id="Rectangle" points="397.039481 7 400.829949 15 409 7 406.620373 23 392.659898 23 389 9.90663625 394.876439 14.9022765"></polygon>
                <polygon id="Rectangle" points="259.039481 202 262.829949 210 271 202 268.620373 218 254.659898 218 251 204.906636 256.876439 209.902276"></polygon>
                <polygon id="Rectangle" points="8.03948081 209 11.829949 217 20 209 17.6203735 225 3.65989792 225 3.46944695e-17 211.906636 5.87643863 216.902276"></polygon>
                <polygon id="Rectangle" points="325.039481 90 328.829949 98 337 90 334.620373 106 320.659898 106 317 92.9066362 322.876439 97.9022765"></polygon>
            </g>
            <g id="Group" transform="translate(499.000000, 539.000000)">
                <polygon id="Rectangle" points="45.0394808 23 48.829949 31 57 23 54.6203735 39 40.6598979 39 37 25.9066362 42.8764386 30.9022765"></polygon>
                <polygon id="Rectangle" points="121.039481 240 124.829949 248 133 240 130.620373 256 116.659898 256 113 242.906636 118.876439 247.902276"></polygon>
                <polygon id="Rectangle" points="141.039481 94 144.829949 102 153 94 150.620373 110 136.659898 110 133 96.9066362 138.876439 101.902276"></polygon>
                <polygon id="Rectangle" points="212.039481 0 215.829949 8 224 0 221.620373 16 207.659898 16 204 2.90663625 209.876439 7.90227646"></polygon>
                <polygon id="Rectangle" points="404.039481 182 407.829949 190 416 182 413.620373 198 399.659898 198 396 184.906636 401.876439 189.902276"></polygon>
                <polygon id="Rectangle" points="397.039481 7 400.829949 15 409 7 406.620373 23 392.659898 23 389 9.90663625 394.876439 14.9022765"></polygon>
                <polygon id="Rectangle" points="259.039481 202 262.829949 210 271 202 268.620373 218 254.659898 218 251 204.906636 256.876439 209.902276"></polygon>
                <polygon id="Rectangle" points="8.03948081 209 11.829949 217 20 209 17.6203735 225 3.65989792 225 3.46944695e-17 211.906636 5.87643863 216.902276"></polygon>
                <polygon id="Rectangle" points="325.039481 90 328.829949 98 337 90 334.620373 106 320.659898 106 317 92.9066362 322.876439 97.9022765"></polygon>
            </g>
            <g id="Group" transform="translate(1399.000000, 204.000000)">
                <polygon id="Rectangle" points="45.0394808 23 48.829949 31 57 23 54.6203735 39 40.6598979 39 37 25.9066362 42.8764386 30.9022765"></polygon>
                <polygon id="Rectangle" points="121.039481 240 124.829949 248 133 240 130.620373 256 116.659898 256 113 242.906636 118.876439 247.902276"></polygon>
                <polygon id="Rectangle" points="141.039481 94 144.829949 102 153 94 150.620373 110 136.659898 110 133 96.9066362 138.876439 101.902276"></polygon>
                <polygon id="Rectangle" points="212.039481 0 215.829949 8 224 0 221.620373 16 207.659898 16 204 2.90663625 209.876439 7.90227646"></polygon>
                <polygon id="Rectangle" points="404.039481 182 407.829949 190 416 182 413.620373 198 399.659898 198 396 184.906636 401.876439 189.902276"></polygon>
                <polygon id="Rectangle" points="397.039481 7 400.829949 15 409 7 406.620373 23 392.659898 23 389 9.90663625 394.876439 14.9022765"></polygon>
                <polygon id="Rectangle" points="259.039481 202 262.829949 210 271 202 268.620373 218 254.659898 218 251 204.906636 256.876439 209.902276"></polygon>
                <polygon id="Rectangle" points="8.03948081 209 11.829949 217 20 209 17.6203735 225 3.65989792 225 3.46944695e-17 211.906636 5.87643863 216.902276"></polygon>
                <polygon id="Rectangle" points="325.039481 90 328.829949 98 337 90 334.620373 106 320.659898 106 317 92.9066362 322.876439 97.9022765"></polygon>
            </g>
            <g id="Group" transform="translate(915.000000, 0.000000)">
                <polygon id="Rectangle" points="121.039481 240 124.829949 248 133 240 130.620373 256 116.659898 256 113 242.906636 118.876439 247.902276"></polygon>
                <polygon id="Rectangle" points="404.039481 182 407.829949 190 416 182 413.620373 198 399.659898 198 396 184.906636 401.876439 189.902276"></polygon>
                <polygon id="Rectangle" points="259.039481 202 262.829949 210 271 202 268.620373 218 254.659898 218 251 204.906636 256.876439 209.902276"></polygon>
                <polygon id="Rectangle" points="8.03948081 209 11.829949 217 20 209 17.6203735 225 3.65989792 225 3.46944695e-17 211.906636 5.87643863 216.902276"></polygon>
            </g>
            <g id="Group" transform="translate(1010.000000, 656.000000)">
                <polygon id="Rectangle" points="45.0394808 23 48.829949 31 57 23 54.6203735 39 40.6598979 39 37 25.9066362 42.8764386 30.9022765"></polygon>
                <polygon id="Rectangle" points="121.039481 240 124.829949 248 133 240 130.620373 256 116.659898 256 113 242.906636 118.876439 247.902276"></polygon>
                <polygon id="Rectangle" points="141.039481 94 144.829949 102 153 94 150.620373 110 136.659898 110 133 96.9066362 138.876439 101.902276"></polygon>
                <polygon id="Rectangle" points="212.039481 0 215.829949 8 224 0 221.620373 16 207.659898 16 204 2.90663625 209.876439 7.90227646"></polygon>
                <polygon id="Rectangle" points="404.039481 182 407.829949 190 416 182 413.620373 198 399.659898 198 396 184.906636 401.876439 189.902276"></polygon>
                <polygon id="Rectangle" points="397.039481 7 400.829949 15 409 7 406.620373 23 392.659898 23 389 9.90663625 394.876439 14.9022765"></polygon>
                <polygon id="Rectangle" points="259.039481 202 262.829949 210 271 202 268.620373 218 254.659898 218 251 204.906636 256.876439 209.902276"></polygon>
                <polygon id="Rectangle" points="8.03948081 209 11.829949 217 20 209 17.6203735 225 3.65989792 225 3.46944695e-17 211.906636 5.87643863 216.902276"></polygon>
                <polygon id="Rectangle" points="325.039481 90 328.829949 98 337 90 334.620373 106 320.659898 106 317 92.9066362 322.876439 97.9022765"></polygon>
            </g>
            <g id="Group" transform="translate(1484.000000, 491.000000)">
                <polygon id="Rectangle" points="45.0394808 23 48.829949 31 57 23 54.6203735 39 40.6598979 39 37 25.9066362 42.8764386 30.9022765"></polygon>
                <polygon id="Rectangle" points="121.039481 240 124.829949 248 133 240 130.620373 256 116.659898 256 113 242.906636 118.876439 247.902276"></polygon>
                <polygon id="Rectangle" points="141.039481 94 144.829949 102 153 94 150.620373 110 136.659898 110 133 96.9066362 138.876439 101.902276"></polygon>
                <polygon id="Rectangle" points="212.039481 0 215.829949 8 224 0 221.620373 16 207.659898 16 204 2.90663625 209.876439 7.90227646"></polygon>
                <polygon id="Rectangle" points="404.039481 182 407.829949 190 416 182 413.620373 198 399.659898 198 396 184.906636 401.876439 189.902276"></polygon>
                <polygon id="Rectangle" points="397.039481 7 400.829949 15 409 7 406.620373 23 392.659898 23 389 9.90663625 394.876439 14.9022765"></polygon>
                <polygon id="Rectangle" points="259.039481 202 262.829949 210 271 202 268.620373 218 254.659898 218 251 204.906636 256.876439 209.902276"></polygon>
                <polygon id="Rectangle" points="8.03948081 209 11.829949 217 20 209 17.6203735 225 3.65989792 225 3.46944695e-17 211.906636 5.87643863 216.902276"></polygon>
                <polygon id="Rectangle" points="325.039481 90 328.829949 98 337 90 334.620373 106 320.659898 106 317 92.9066362 322.876439 97.9022765"></polygon>
            </g>
            <g id="Group" transform="translate(364.000000, 880.000000)">
                <polygon id="Rectangle" points="45.0394808 23 48.829949 31 57 23 54.6203735 39 40.6598979 39 37 25.9066362 42.8764386 30.9022765"></polygon>
                <polygon id="Rectangle" points="121.039481 240 124.829949 248 133 240 130.620373 256 116.659898 256 113 242.906636 118.876439 247.902276"></polygon>
                <polygon id="Rectangle" points="141.039481 94 144.829949 102 153 94 150.620373 110 136.659898 110 133 96.9066362 138.876439 101.902276"></polygon>
                <polygon id="Rectangle" points="212.039481 0 215.829949 8 224 0 221.620373 16 207.659898 16 204 2.90663625 209.876439 7.90227646"></polygon>
                <polygon id="Rectangle" points="404.039481 182 407.829949 190 416 182 413.620373 198 399.659898 198 396 184.906636 401.876439 189.902276"></polygon>
                <polygon id="Rectangle" points="397.039481 7 400.829949 15 409 7 406.620373 23 392.659898 23 389 9.90663625 394.876439 14.9022765"></polygon>
                <polygon id="Rectangle" points="259.039481 202 262.829949 210 271 202 268.620373 218 254.659898 218 251 204.906636 256.876439 209.902276"></polygon>
                <polygon id="Rectangle" points="8.03948081 209 11.829949 217 20 209 17.6203735 225 3.65989792 225 3.46944695e-17 211.906636 5.87643863 216.902276"></polygon>
                <polygon id="Rectangle" points="325.039481 90 328.829949 98 337 90 334.620373 106 320.659898 106 317 92.9066362 322.876439 97.9022765"></polygon>
                <polygon id="Rectangle" points="33.0394808 299.5 36.829949 307.5 45 299.5 42.6203735 315.5 28.6598979 315.5 25 302.406636 30.8764386 307.402276"></polygon>
            </g>
            <g id="Group" transform="translate(1446.000000, 912.000000)">
                <polygon id="Rectangle" points="45.0394808 23 48.829949 31 57 23 54.6203735 39 40.6598979 39 37 25.9066362 42.8764386 30.9022765"></polygon>
                <polygon id="Rectangle" points="121.039481 240 124.829949 248 133 240 130.620373 256 116.659898 256 113 242.906636 118.876439 247.902276"></polygon>
                <polygon id="Rectangle" points="141.039481 94 144.829949 102 153 94 150.620373 110 136.659898 110 133 96.9066362 138.876439 101.902276"></polygon>
                <polygon id="Rectangle" points="212.039481 0 215.829949 8 224 0 221.620373 16 207.659898 16 204 2.90663625 209.876439 7.90227646"></polygon>
                <polygon id="Rectangle" points="404.039481 182 407.829949 190 416 182 413.620373 198 399.659898 198 396 184.906636 401.876439 189.902276"></polygon>
                <polygon id="Rectangle" points="397.039481 7 400.829949 15 409 7 406.620373 23 392.659898 23 389 9.90663625 394.876439 14.9022765"></polygon>
                <polygon id="Rectangle" points="259.039481 202 262.829949 210 271 202 268.620373 218 254.659898 218 251 204.906636 256.876439 209.902276"></polygon>
                <polygon id="Rectangle" points="8.03948081 209 11.829949 217 20 209 17.6203735 225 3.65989792 225 3.46944695e-17 211.906636 5.87643863 216.902276"></polygon>
                <polygon id="Rectangle" points="325.039481 90 328.829949 98 337 90 334.620373 106 320.659898 106 317 92.9066362 322.876439 97.9022765"></polygon>
            </g>
            <g id="Group" transform="translate(863.000000, 978.000000)">
                <polygon id="Rectangle" points="45.0394808 23 48.829949 31 57 23 54.6203735 39 40.6598979 39 37 25.9066362 42.8764386 30.9022765"></polygon>
                <polygon id="Rectangle" points="121.039481 240 124.829949 248 133 240 130.620373 256 116.659898 256 113 242.906636 118.876439 247.902276"></polygon>
                <polygon id="Rectangle" points="141.039481 94 144.829949 102 153 94 150.620373 110 136.659898 110 133 96.9066362 138.876439 101.902276"></polygon>
                <polygon id="Rectangle" points="212.039481 0 215.829949 8 224 0 221.620373 16 207.659898 16 204 2.90663625 209.876439 7.90227646"></polygon>
                <polygon id="Rectangle" points="404.039481 182 407.829949 190 416 182 413.620373 198 399.659898 198 396 184.906636 401.876439 189.902276"></polygon>
                <polygon id="Rectangle" points="397.039481 7 400.829949 15 409 7 406.620373 23 392.659898 23 389 9.90663625 394.876439 14.9022765"></polygon>
                <polygon id="Rectangle" points="259.039481 202 262.829949 210 271 202 268.620373 218 254.659898 218 251 204.906636 256.876439 209.902276"></polygon>
                <polygon id="Rectangle" points="8.03948081 209 11.829949 217 20 209 17.6203735 225 3.65989792 225 3.46944695e-17 211.906636 5.87643863 216.902276"></polygon>
                <polygon id="Rectangle" points="325.039481 90 328.829949 98 337 90 334.620373 106 320.659898 106 317 92.9066362 322.876439 97.9022765"></polygon>
            </g>
            <g id="Group" transform="translate(0.000000, 176.000000)">
                <polygon id="Rectangle" points="45.0394808 23 48.829949 31 57 23 54.6203735 39 40.6598979 39 37 25.9066362 42.8764386 30.9022765"></polygon>
                <polygon id="Rectangle" points="121.039481 240 124.829949 248 133 240 130.620373 256 116.659898 256 113 242.906636 118.876439 247.902276"></polygon>
                <polygon id="Rectangle" points="141.039481 94 144.829949 102 153 94 150.620373 110 136.659898 110 133 96.9066362 138.876439 101.902276"></polygon>
                <polygon id="Rectangle" points="212.039481 0 215.829949 8 224 0 221.620373 16 207.659898 16 204 2.90663625 209.876439 7.90227646"></polygon>
                <polygon id="Rectangle" points="404.039481 182 407.829949 190 416 182 413.620373 198 399.659898 198 396 184.906636 401.876439 189.902276"></polygon>
                <polygon id="Rectangle" points="397.039481 7 400.829949 15 409 7 406.620373 23 392.659898 23 389 9.90663625 394.876439 14.9022765"></polygon>
                <polygon id="Rectangle" points="259.039481 202 262.829949 210 271 202 268.620373 218 254.659898 218 251 204.906636 256.876439 209.902276"></polygon>
                <polygon id="Rectangle" points="8.03948081 209 11.829949 217 20 209 17.6203735 225 3.65989792 225 3.46944695e-17 211.906636 5.87643863 216.902276"></polygon>
                <polygon id="Rectangle" points="335.039481 90 338.829949 98 347 90 344.620373 106 330.659898 106 327 92.9066362 332.876439 97.9022765"></polygon>
            </g>
        </g>
        <g id="1-2" transform="translate(-323.000000, 982.500000)" fill="#057508">
            <g id="Group" transform="translate(447.000000, 59.000000)">
                <polygon id="Rectangle" points="45.0394808 23 48.829949 31 57 23 54.6203735 39 40.6598979 39 37 25.9066362 42.8764386 30.9022765"></polygon>
                <polygon id="Rectangle" points="121.039481 240 124.829949 248 133 240 130.620373 256 116.659898 256 113 242.906636 118.876439 247.902276"></polygon>
                <polygon id="Rectangle" points="141.039481 94 144.829949 102 153 94 150.620373 110 136.659898 110 133 96.9066362 138.876439 101.902276"></polygon>
                <polygon id="Rectangle" points="212.039481 0 215.829949 8 224 0 221.620373 16 207.659898 16 204 2.90663625 209.876439 7.90227646"></polygon>
                <polygon id="Rectangle" points="404.039481 182 407.829949 190 416 182 413.620373 198 399.659898 198 396 184.906636 401.876439 189.902276"></polygon>
                <polygon id="Rectangle" points="397.039481 7 400.829949 15 409 7 406.620373 23 392.659898 23 389 9.90663625 394.876439 14.9022765"></polygon>
                <polygon id="Rectangle" points="259.039481 202 262.829949 210 271 202 268.620373 218 254.659898 218 251 204.906636 256.876439 209.902276"></polygon>
                <polygon id="Rectangle" points="8.03948081 209 11.829949 217 20 209 17.6203735 225 3.65989792 225 3.46944695e-17 211.906636 5.87643863 216.902276"></polygon>
                <polygon id="Rectangle" points="325.039481 90 328.829949 98 337 90 334.620373 106 320.659898 106 317 92.9066362 322.876439 97.9022765"></polygon>
            </g>
            <g id="Group" transform="translate(44.000000, 363.000000)">
                <polygon id="Rectangle" points="404.039481 182 407.829949 190 416 182 413.620373 198 399.659898 198 396 184.906636 401.876439 189.902276"></polygon>
                <polygon id="Rectangle" points="397.039481 7 400.829949 15 409 7 406.620373 23 392.659898 23 389 9.90663625 394.876439 14.9022765"></polygon>
                <polygon id="Rectangle" points="325.039481 90 328.829949 98 337 90 334.620373 106 320.659898 106 317 92.9066362 322.876439 97.9022765"></polygon>
            </g>
            <g id="Group" transform="translate(983.000000, 156.000000)">
                <polygon id="Rectangle" points="45.0394808 23 48.829949 31 57 23 54.6203735 39 40.6598979 39 37 25.9066362 42.8764386 30.9022765"></polygon>
                <polygon id="Rectangle" points="121.039481 240 124.829949 248 133 240 130.620373 256 116.659898 256 113 242.906636 118.876439 247.902276"></polygon>
                <polygon id="Rectangle" points="141.039481 94 144.829949 102 153 94 150.620373 110 136.659898 110 133 96.9066362 138.876439 101.902276"></polygon>
                <polygon id="Rectangle" points="212.039481 0 215.829949 8 224 0 221.620373 16 207.659898 16 204 2.90663625 209.876439 7.90227646"></polygon>
                <polygon id="Rectangle" points="404.039481 182 407.829949 190 416 182 413.620373 198 399.659898 198 396 184.906636 401.876439 189.902276"></polygon>
                <polygon id="Rectangle" points="397.039481 7 400.829949 15 409 7 406.620373 23 392.659898 23 389 9.90663625 394.876439 14.9022765"></polygon>
                <polygon id="Rectangle" points="259.039481 202 262.829949 210 271 202 268.620373 218 254.659898 218 251 204.906636 256.876439 209.902276"></polygon>
                <polygon id="Rectangle" points="8.03948081 209 11.829949 217 20 209 17.6203735 225 3.65989792 225 3.46944695e-17 211.906636 5.87643863 216.902276"></polygon>
                <polygon id="Rectangle" points="325.039481 90 328.829949 98 337 90 334.620373 106 320.659898 106 317 92.9066362 322.876439 97.9022765"></polygon>
            </g>
            <g id="Group" transform="translate(499.000000, 363.000000)">
                <polygon id="Rectangle" points="45.0394808 23 48.829949 31 57 23 54.6203735 39 40.6598979 39 37 25.9066362 42.8764386 30.9022765"></polygon>
                <polygon id="Rectangle" points="121.039481 240 124.829949 248 133 240 130.620373 256 116.659898 256 113 242.906636 118.876439 247.902276"></polygon>
                <polygon id="Rectangle" points="141.039481 94 144.829949 102 153 94 150.620373 110 136.659898 110 133 96.9066362 138.876439 101.902276"></polygon>
                <polygon id="Rectangle" points="212.039481 0 215.829949 8 224 0 221.620373 16 207.659898 16 204 2.90663625 209.876439 7.90227646"></polygon>
                <polygon id="Rectangle" points="404.039481 182 407.829949 190 416 182 413.620373 198 399.659898 198 396 184.906636 401.876439 189.902276"></polygon>
                <polygon id="Rectangle" points="397.039481 7 400.829949 15 409 7 406.620373 23 392.659898 23 389 9.90663625 394.876439 14.9022765"></polygon>
                <polygon id="Rectangle" points="259.039481 202 262.829949 210 271 202 268.620373 218 254.659898 218 251 204.906636 256.876439 209.902276"></polygon>
                <polygon id="Rectangle" points="8.03948081 209 11.829949 217 20 209 17.6203735 225 3.65989792 225 3.46944695e-17 211.906636 5.87643863 216.902276"></polygon>
                <polygon id="Rectangle" points="325.039481 90 328.829949 98 337 90 334.620373 106 320.659898 106 317 92.9066362 322.876439 97.9022765"></polygon>
            </g>
            <g id="Group" transform="translate(1399.000000, 28.000000)">
                <polygon id="Rectangle" points="45.0394808 23 48.829949 31 57 23 54.6203735 39 40.6598979 39 37 25.9066362 42.8764386 30.9022765"></polygon>
                <polygon id="Rectangle" points="121.039481 240 124.829949 248 133 240 130.620373 256 116.659898 256 113 242.906636 118.876439 247.902276"></polygon>
                <polygon id="Rectangle" points="141.039481 94 144.829949 102 153 94 150.620373 110 136.659898 110 133 96.9066362 138.876439 101.902276"></polygon>
                <polygon id="Rectangle" points="212.039481 0 215.829949 8 224 0 221.620373 16 207.659898 16 204 2.90663625 209.876439 7.90227646"></polygon>
                <polygon id="Rectangle" points="404.039481 182 407.829949 190 416 182 413.620373 198 399.659898 198 396 184.906636 401.876439 189.902276"></polygon>
                <polygon id="Rectangle" points="397.039481 7 400.829949 15 409 7 406.620373 23 392.659898 23 389 9.90663625 394.876439 14.9022765"></polygon>
                <polygon id="Rectangle" points="259.039481 202 262.829949 210 271 202 268.620373 218 254.659898 218 251 204.906636 256.876439 209.902276"></polygon>
                <polygon id="Rectangle" points="8.03948081 209 11.829949 217 20 209 17.6203735 225 3.65989792 225 3.46944695e-17 211.906636 5.87643863 216.902276"></polygon>
                <polygon id="Rectangle" points="325.039481 90 328.829949 98 337 90 334.620373 106 320.659898 106 317 92.9066362 322.876439 97.9022765"></polygon>
            </g>
            <g id="Group" transform="translate(1028.000000, 26.000000)">
                <polygon id="Rectangle" points="8.03948081 38 11.829949 46 20 38 17.6203735 54 3.65989792 54 3.46944695e-17 40.9066362 5.87643863 45.9022765"></polygon>
                <polygon id="Rectangle" points="146.039481 0 149.829949 8 158 0 155.620373 16 141.659898 16 138 2.90663625 143.876439 7.90227646"></polygon>
            </g>
            <g id="Group" transform="translate(1010.000000, 480.000000)">
                <polygon id="Rectangle" points="45.0394808 23 48.829949 31 57 23 54.6203735 39 40.6598979 39 37 25.9066362 42.8764386 30.9022765"></polygon>
                <polygon id="Rectangle" points="121.039481 240 124.829949 248 133 240 130.620373 256 116.659898 256 113 242.906636 118.876439 247.902276"></polygon>
                <polygon id="Rectangle" points="141.039481 94 144.829949 102 153 94 150.620373 110 136.659898 110 133 96.9066362 138.876439 101.902276"></polygon>
                <polygon id="Rectangle" points="212.039481 0 215.829949 8 224 0 221.620373 16 207.659898 16 204 2.90663625 209.876439 7.90227646"></polygon>
                <polygon id="Rectangle" points="404.039481 182 407.829949 190 416 182 413.620373 198 399.659898 198 396 184.906636 401.876439 189.902276"></polygon>
                <polygon id="Rectangle" points="397.039481 7 400.829949 15 409 7 406.620373 23 392.659898 23 389 9.90663625 394.876439 14.9022765"></polygon>
                <polygon id="Rectangle" points="259.039481 202 262.829949 210 271 202 268.620373 218 254.659898 218 251 204.906636 256.876439 209.902276"></polygon>
                <polygon id="Rectangle" points="8.03948081 209 11.829949 217 20 209 17.6203735 225 3.65989792 225 3.46944695e-17 211.906636 5.87643863 216.902276"></polygon>
                <polygon id="Rectangle" points="325.039481 90 328.829949 98 337 90 334.620373 106 320.659898 106 317 92.9066362 322.876439 97.9022765"></polygon>
            </g>
            <g id="Group" transform="translate(1484.000000, 315.000000)">
                <polygon id="Rectangle" points="45.0394808 23 48.829949 31 57 23 54.6203735 39 40.6598979 39 37 25.9066362 42.8764386 30.9022765"></polygon>
                <polygon id="Rectangle" points="121.039481 240 124.829949 248 133 240 130.620373 256 116.659898 256 113 242.906636 118.876439 247.902276"></polygon>
                <polygon id="Rectangle" points="141.039481 94 144.829949 102 153 94 150.620373 110 136.659898 110 133 96.9066362 138.876439 101.902276"></polygon>
                <polygon id="Rectangle" points="212.039481 0 215.829949 8 224 0 221.620373 16 207.659898 16 204 2.90663625 209.876439 7.90227646"></polygon>
                <polygon id="Rectangle" points="404.039481 182 407.829949 190 416 182 413.620373 198 399.659898 198 396 184.906636 401.876439 189.902276"></polygon>
                <polygon id="Rectangle" points="397.039481 7 400.829949 15 409 7 406.620373 23 392.659898 23 389 9.90663625 394.876439 14.9022765"></polygon>
                <polygon id="Rectangle" points="259.039481 202 262.829949 210 271 202 268.620373 218 254.659898 218 251 204.906636 256.876439 209.902276"></polygon>
                <polygon id="Rectangle" points="8.03948081 209 11.829949 217 20 209 17.6203735 225 3.65989792 225 3.46944695e-17 211.906636 5.87643863 216.902276"></polygon>
                <polygon id="Rectangle" points="325.039481 90 328.829949 98 337 90 334.620373 106 320.659898 106 317 92.9066362 322.876439 97.9022765"></polygon>
            </g>
            <g id="Group" transform="translate(364.000000, 704.000000)">
                <polygon id="Rectangle" points="45.0394808 23 48.829949 31 57 23 54.6203735 39 40.6598979 39 37 25.9066362 42.8764386 30.9022765"></polygon>
                <polygon id="Rectangle" points="121.039481 240 124.829949 248 133 240 130.620373 256 116.659898 256 113 242.906636 118.876439 247.902276"></polygon>
                <polygon id="Rectangle" points="141.039481 94 144.829949 102 153 94 150.620373 110 136.659898 110 133 96.9066362 138.876439 101.902276"></polygon>
                <polygon id="Rectangle" points="212.039481 0 215.829949 8 224 0 221.620373 16 207.659898 16 204 2.90663625 209.876439 7.90227646"></polygon>
                <polygon id="Rectangle" points="404.039481 182 407.829949 190 416 182 413.620373 198 399.659898 198 396 184.906636 401.876439 189.902276"></polygon>
                <polygon id="Rectangle" points="397.039481 7 400.829949 15 409 7 406.620373 23 392.659898 23 389 9.90663625 394.876439 14.9022765"></polygon>
                <polygon id="Rectangle" points="259.039481 202 262.829949 210 271 202 268.620373 218 254.659898 218 251 204.906636 256.876439 209.902276"></polygon>
                <polygon id="Rectangle" points="8.03948081 209 11.829949 217 20 209 17.6203735 225 3.65989792 225 3.46944695e-17 211.906636 5.87643863 216.902276"></polygon>
                <polygon id="Rectangle" points="325.039481 90 328.829949 98 337 90 334.620373 106 320.659898 106 317 92.9066362 322.876439 97.9022765"></polygon>
            </g>
            <g id="Group" transform="translate(1446.000000, 736.000000)">
                <polygon id="Rectangle" points="45.0394808 23 48.829949 31 57 23 54.6203735 39 40.6598979 39 37 25.9066362 42.8764386 30.9022765"></polygon>
                <polygon id="Rectangle" points="121.039481 240 124.829949 248 133 240 130.620373 256 116.659898 256 113 242.906636 118.876439 247.902276"></polygon>
                <polygon id="Rectangle" points="141.039481 94 144.829949 102 153 94 150.620373 110 136.659898 110 133 96.9066362 138.876439 101.902276"></polygon>
                <polygon id="Rectangle" points="212.039481 0 215.829949 8 224 0 221.620373 16 207.659898 16 204 2.90663625 209.876439 7.90227646"></polygon>
                <polygon id="Rectangle" points="404.039481 182 407.829949 190 416 182 413.620373 198 399.659898 198 396 184.906636 401.876439 189.902276"></polygon>
                <polygon id="Rectangle" points="397.039481 7 400.829949 15 409 7 406.620373 23 392.659898 23 389 9.90663625 394.876439 14.9022765"></polygon>
                <polygon id="Rectangle" points="259.039481 202 262.829949 210 271 202 268.620373 218 254.659898 218 251 204.906636 256.876439 209.902276"></polygon>
                <polygon id="Rectangle" points="8.03948081 209 11.829949 217 20 209 17.6203735 225 3.65989792 225 3.46944695e-17 211.906636 5.87643863 216.902276"></polygon>
                <polygon id="Rectangle" points="325.039481 90 328.829949 98 337 90 334.620373 106 320.659898 106 317 92.9066362 322.876439 97.9022765"></polygon>
            </g>
            <g id="Group" transform="translate(863.000000, 802.000000)">
                <polygon id="Rectangle" points="45.0394808 23 48.829949 31 57 23 54.6203735 39 40.6598979 39 37 25.9066362 42.8764386 30.9022765"></polygon>
                <polygon id="Rectangle" points="141.039481 94 144.829949 102 153 94 150.620373 110 136.659898 110 133 96.9066362 138.876439 101.902276"></polygon>
                <polygon id="Rectangle" points="212.039481 0 215.829949 8 224 0 221.620373 16 207.659898 16 204 2.90663625 209.876439 7.90227646"></polygon>
                <polygon id="Rectangle" points="404.039481 182 407.829949 190 416 182 413.620373 198 399.659898 198 396 184.906636 401.876439 189.902276"></polygon>
                <polygon id="Rectangle" points="397.039481 7 400.829949 15 409 7 406.620373 23 392.659898 23 389 9.90663625 394.876439 14.9022765"></polygon>
                <polygon id="Rectangle" points="259.039481 202 262.829949 210 271 202 268.620373 218 254.659898 218 251 204.906636 256.876439 209.902276"></polygon>
                <polygon id="Rectangle" points="8.03948081 209 11.829949 217 20 209 17.6203735 225 3.65989792 225 3.46944695e-17 211.906636 5.87643863 216.902276"></polygon>
                <polygon id="Rectangle" points="325.039481 90 328.829949 98 337 90 334.620373 106 320.659898 106 317 92.9066362 322.876439 97.9022765"></polygon>
            </g>
            <g id="Group">
                <polygon id="Rectangle" points="404.039481 182 407.829949 190 416 182 413.620373 198 399.659898 198 396 184.906636 401.876439 189.902276"></polygon>
                <polygon id="Rectangle" points="397.039481 7 400.829949 15 409 7 406.620373 23 392.659898 23 389 9.90663625 394.876439 14.9022765"></polygon>
                <polygon id="Rectangle" points="325.039481 90 328.829949 98 337 90 334.620373 106 320.659898 106 317 92.9066362 322.876439 97.9022765"></polygon>
            </g>
        </g>
        <g id="1-1" transform="translate(-323.000000, -190.000000)" fill="#057508">
            <g id="Group" transform="translate(447.000000, 235.000000)">
                <polygon id="Rectangle" points="45.0394808 23 48.829949 31 57 23 54.6203735 39 40.6598979 39 37 25.9066362 42.8764386 30.9022765"></polygon>
                <polygon id="Rectangle" points="121.039481 240 124.829949 248 133 240 130.620373 256 116.659898 256 113 242.906636 118.876439 247.902276"></polygon>
                <polygon id="Rectangle" points="141.039481 94 144.829949 102 153 94 150.620373 110 136.659898 110 133 96.9066362 138.876439 101.902276"></polygon>
                <polygon id="Rectangle" points="212.039481 0 215.829949 8 224 0 221.620373 16 207.659898 16 204 2.90663625 209.876439 7.90227646"></polygon>
                <polygon id="Rectangle" points="404.039481 182 407.829949 190 416 182 413.620373 198 399.659898 198 396 184.906636 401.876439 189.902276"></polygon>
                <polygon id="Rectangle" points="397.039481 7 400.829949 15 409 7 406.620373 23 392.659898 23 389 9.90663625 394.876439 14.9022765"></polygon>
                <polygon id="Rectangle" points="259.039481 202 262.829949 210 271 202 268.620373 218 254.659898 218 251 204.906636 256.876439 209.902276"></polygon>
                <polygon id="Rectangle" points="8.03948081 209 11.829949 217 20 209 17.6203735 225 3.65989792 225 3.46944695e-17 211.906636 5.87643863 216.902276"></polygon>
                <polygon id="Rectangle" points="325.039481 90 328.829949 98 337 90 334.620373 106 320.659898 106 317 92.9066362 322.876439 97.9022765"></polygon>
            </g>
            <g id="Group" transform="translate(44.000000, 539.000000)">
                <polygon id="Rectangle" points="404.039481 182 407.829949 190 416 182 413.620373 198 399.659898 198 396 184.906636 401.876439 189.902276"></polygon>
                <polygon id="Rectangle" points="397.039481 7 400.829949 15 409 7 406.620373 23 392.659898 23 389 9.90663625 394.876439 14.9022765"></polygon>
                <polygon id="Rectangle" points="325.039481 90 328.829949 98 337 90 334.620373 106 320.659898 106 317 92.9066362 322.876439 97.9022765"></polygon>
            </g>
            <g id="Group" transform="translate(983.000000, 332.000000)">
                <polygon id="Rectangle" points="45.0394808 23 48.829949 31 57 23 54.6203735 39 40.6598979 39 37 25.9066362 42.8764386 30.9022765"></polygon>
                <polygon id="Rectangle" points="121.039481 240 124.829949 248 133 240 130.620373 256 116.659898 256 113 242.906636 118.876439 247.902276"></polygon>
                <polygon id="Rectangle" points="141.039481 94 144.829949 102 153 94 150.620373 110 136.659898 110 133 96.9066362 138.876439 101.902276"></polygon>
                <polygon id="Rectangle" points="212.039481 0 215.829949 8 224 0 221.620373 16 207.659898 16 204 2.90663625 209.876439 7.90227646"></polygon>
                <polygon id="Rectangle" points="404.039481 182 407.829949 190 416 182 413.620373 198 399.659898 198 396 184.906636 401.876439 189.902276"></polygon>
                <polygon id="Rectangle" points="397.039481 7 400.829949 15 409 7 406.620373 23 392.659898 23 389 9.90663625 394.876439 14.9022765"></polygon>
                <polygon id="Rectangle" points="259.039481 202 262.829949 210 271 202 268.620373 218 254.659898 218 251 204.906636 256.876439 209.902276"></polygon>
                <polygon id="Rectangle" points="8.03948081 209 11.829949 217 20 209 17.6203735 225 3.65989792 225 3.46944695e-17 211.906636 5.87643863 216.902276"></polygon>
                <polygon id="Rectangle" points="325.039481 90 328.829949 98 337 90 334.620373 106 320.659898 106 317 92.9066362 322.876439 97.9022765"></polygon>
            </g>
            <g id="Group" transform="translate(499.000000, 539.000000)">
                <polygon id="Rectangle" points="45.0394808 23 48.829949 31 57 23 54.6203735 39 40.6598979 39 37 25.9066362 42.8764386 30.9022765"></polygon>
                <polygon id="Rectangle" points="121.039481 240 124.829949 248 133 240 130.620373 256 116.659898 256 113 242.906636 118.876439 247.902276"></polygon>
                <polygon id="Rectangle" points="141.039481 94 144.829949 102 153 94 150.620373 110 136.659898 110 133 96.9066362 138.876439 101.902276"></polygon>
                <polygon id="Rectangle" points="212.039481 0 215.829949 8 224 0 221.620373 16 207.659898 16 204 2.90663625 209.876439 7.90227646"></polygon>
                <polygon id="Rectangle" points="404.039481 182 407.829949 190 416 182 413.620373 198 399.659898 198 396 184.906636 401.876439 189.902276"></polygon>
                <polygon id="Rectangle" points="397.039481 7 400.829949 15 409 7 406.620373 23 392.659898 23 389 9.90663625 394.876439 14.9022765"></polygon>
                <polygon id="Rectangle" points="259.039481 202 262.829949 210 271 202 268.620373 218 254.659898 218 251 204.906636 256.876439 209.902276"></polygon>
                <polygon id="Rectangle" points="8.03948081 209 11.829949 217 20 209 17.6203735 225 3.65989792 225 3.46944695e-17 211.906636 5.87643863 216.902276"></polygon>
                <polygon id="Rectangle" points="325.039481 90 328.829949 98 337 90 334.620373 106 320.659898 106 317 92.9066362 322.876439 97.9022765"></polygon>
            </g>
            <g id="Group" transform="translate(1399.000000, 204.000000)">
                <polygon id="Rectangle" points="45.0394808 23 48.829949 31 57 23 54.6203735 39 40.6598979 39 37 25.9066362 42.8764386 30.9022765"></polygon>
                <polygon id="Rectangle" points="121.039481 240 124.829949 248 133 240 130.620373 256 116.659898 256 113 242.906636 118.876439 247.902276"></polygon>
                <polygon id="Rectangle" points="141.039481 94 144.829949 102 153 94 150.620373 110 136.659898 110 133 96.9066362 138.876439 101.902276"></polygon>
                <polygon id="Rectangle" points="212.039481 0 215.829949 8 224 0 221.620373 16 207.659898 16 204 2.90663625 209.876439 7.90227646"></polygon>
                <polygon id="Rectangle" points="404.039481 182 407.829949 190 416 182 413.620373 198 399.659898 198 396 184.906636 401.876439 189.902276"></polygon>
                <polygon id="Rectangle" points="397.039481 7 400.829949 15 409 7 406.620373 23 392.659898 23 389 9.90663625 394.876439 14.9022765"></polygon>
                <polygon id="Rectangle" points="259.039481 202 262.829949 210 271 202 268.620373 218 254.659898 218 251 204.906636 256.876439 209.902276"></polygon>
                <polygon id="Rectangle" points="8.03948081 209 11.829949 217 20 209 17.6203735 225 3.65989792 225 3.46944695e-17 211.906636 5.87643863 216.902276"></polygon>
                <polygon id="Rectangle" points="325.039481 90 328.829949 98 337 90 334.620373 106 320.659898 106 317 92.9066362 322.876439 97.9022765"></polygon>
            </g>
            <g id="Group" transform="translate(915.000000, 0.000000)">
                <polygon id="Rectangle" points="121.039481 240 124.829949 248 133 240 130.620373 256 116.659898 256 113 242.906636 118.876439 247.902276"></polygon>
                <polygon id="Rectangle" points="404.039481 182 407.829949 190 416 182 413.620373 198 399.659898 198 396 184.906636 401.876439 189.902276"></polygon>
                <polygon id="Rectangle" points="259.039481 202 262.829949 210 271 202 268.620373 218 254.659898 218 251 204.906636 256.876439 209.902276"></polygon>
                <polygon id="Rectangle" points="8.03948081 209 11.829949 217 20 209 17.6203735 225 3.65989792 225 3.46944695e-17 211.906636 5.87643863 216.902276"></polygon>
            </g>
            <g id="Group" transform="translate(1010.000000, 656.000000)">
                <polygon id="Rectangle" points="45.0394808 23 48.829949 31 57 23 54.6203735 39 40.6598979 39 37 25.9066362 42.8764386 30.9022765"></polygon>
                <polygon id="Rectangle" points="121.039481 240 124.829949 248 133 240 130.620373 256 116.659898 256 113 242.906636 118.876439 247.902276"></polygon>
                <polygon id="Rectangle" points="141.039481 94 144.829949 102 153 94 150.620373 110 136.659898 110 133 96.9066362 138.876439 101.902276"></polygon>
                <polygon id="Rectangle" points="212.039481 0 215.829949 8 224 0 221.620373 16 207.659898 16 204 2.90663625 209.876439 7.90227646"></polygon>
                <polygon id="Rectangle" points="404.039481 182 407.829949 190 416 182 413.620373 198 399.659898 198 396 184.906636 401.876439 189.902276"></polygon>
                <polygon id="Rectangle" points="397.039481 7 400.829949 15 409 7 406.620373 23 392.659898 23 389 9.90663625 394.876439 14.9022765"></polygon>
                <polygon id="Rectangle" points="259.039481 202 262.829949 210 271 202 268.620373 218 254.659898 218 251 204.906636 256.876439 209.902276"></polygon>
                <polygon id="Rectangle" points="8.03948081 209 11.829949 217 20 209 17.6203735 225 3.65989792 225 3.46944695e-17 211.906636 5.87643863 216.902276"></polygon>
                <polygon id="Rectangle" points="325.039481 90 328.829949 98 337 90 334.620373 106 320.659898 106 317 92.9066362 322.876439 97.9022765"></polygon>
            </g>
            <g id="Group" transform="translate(1484.000000, 491.000000)">
                <polygon id="Rectangle" points="45.0394808 23 48.829949 31 57 23 54.6203735 39 40.6598979 39 37 25.9066362 42.8764386 30.9022765"></polygon>
                <polygon id="Rectangle" points="121.039481 240 124.829949 248 133 240 130.620373 256 116.659898 256 113 242.906636 118.876439 247.902276"></polygon>
                <polygon id="Rectangle" points="141.039481 94 144.829949 102 153 94 150.620373 110 136.659898 110 133 96.9066362 138.876439 101.902276"></polygon>
                <polygon id="Rectangle" points="212.039481 0 215.829949 8 224 0 221.620373 16 207.659898 16 204 2.90663625 209.876439 7.90227646"></polygon>
                <polygon id="Rectangle" points="404.039481 182 407.829949 190 416 182 413.620373 198 399.659898 198 396 184.906636 401.876439 189.902276"></polygon>
                <polygon id="Rectangle" points="397.039481 7 400.829949 15 409 7 406.620373 23 392.659898 23 389 9.90663625 394.876439 14.9022765"></polygon>
                <polygon id="Rectangle" points="259.039481 202 262.829949 210 271 202 268.620373 218 254.659898 218 251 204.906636 256.876439 209.902276"></polygon>
                <polygon id="Rectangle" points="8.03948081 209 11.829949 217 20 209 17.6203735 225 3.65989792 225 3.46944695e-17 211.906636 5.87643863 216.902276"></polygon>
                <polygon id="Rectangle" points="325.039481 90 328.829949 98 337 90 334.620373 106 320.659898 106 317 92.9066362 322.876439 97.9022765"></polygon>
            </g>
            <g id="Group" transform="translate(364.000000, 880.000000)">
                <polygon id="Rectangle" points="45.0394808 23 48.829949 31 57 23 54.6203735 39 40.6598979 39 37 25.9066362 42.8764386 30.9022765"></polygon>
                <polygon id="Rectangle" points="121.039481 240 124.829949 248 133 240 130.620373 256 116.659898 256 113 242.906636 118.876439 247.902276"></polygon>
                <polygon id="Rectangle" points="141.039481 94 144.829949 102 153 94 150.620373 110 136.659898 110 133 96.9066362 138.876439 101.902276"></polygon>
                <polygon id="Rectangle" points="212.039481 0 215.829949 8 224 0 221.620373 16 207.659898 16 204 2.90663625 209.876439 7.90227646"></polygon>
                <polygon id="Rectangle" points="404.039481 182 407.829949 190 416 182 413.620373 198 399.659898 198 396 184.906636 401.876439 189.902276"></polygon>
                <polygon id="Rectangle" points="397.039481 7 400.829949 15 409 7 406.620373 23 392.659898 23 389 9.90663625 394.876439 14.9022765"></polygon>
                <polygon id="Rectangle" points="259.039481 202 262.829949 210 271 202 268.620373 218 254.659898 218 251 204.906636 256.876439 209.902276"></polygon>
                <polygon id="Rectangle" points="8.03948081 209 11.829949 217 20 209 17.6203735 225 3.65989792 225 3.46944695e-17 211.906636 5.87643863 216.902276"></polygon>
                <polygon id="Rectangle" points="325.039481 90 328.829949 98 337 90 334.620373 106 320.659898 106 317 92.9066362 322.876439 97.9022765"></polygon>
            </g>
            <g id="Group" transform="translate(1446.000000, 912.000000)">
                <polygon id="Rectangle" points="45.0394808 23 48.829949 31 57 23 54.6203735 39 40.6598979 39 37 25.9066362 42.8764386 30.9022765"></polygon>
                <polygon id="Rectangle" points="121.039481 240 124.829949 248 133 240 130.620373 256 116.659898 256 113 242.906636 118.876439 247.902276"></polygon>
                <polygon id="Rectangle" points="141.039481 94 144.829949 102 153 94 150.620373 110 136.659898 110 133 96.9066362 138.876439 101.902276"></polygon>
                <polygon id="Rectangle" points="212.039481 0 215.829949 8 224 0 221.620373 16 207.659898 16 204 2.90663625 209.876439 7.90227646"></polygon>
                <polygon id="Rectangle" points="404.039481 182 407.829949 190 416 182 413.620373 198 399.659898 198 396 184.906636 401.876439 189.902276"></polygon>
                <polygon id="Rectangle" points="397.039481 7 400.829949 15 409 7 406.620373 23 392.659898 23 389 9.90663625 394.876439 14.9022765"></polygon>
                <polygon id="Rectangle" points="259.039481 202 262.829949 210 271 202 268.620373 218 254.659898 218 251 204.906636 256.876439 209.902276"></polygon>
                <polygon id="Rectangle" points="8.03948081 209 11.829949 217 20 209 17.6203735 225 3.65989792 225 3.46944695e-17 211.906636 5.87643863 216.902276"></polygon>
                <polygon id="Rectangle" points="325.039481 90 328.829949 98 337 90 334.620373 106 320.659898 106 317 92.9066362 322.876439 97.9022765"></polygon>
            </g>
            <g id="Group" transform="translate(863.000000, 978.000000)">
                <polygon id="Rectangle" points="45.0394808 23 48.829949 31 57 23 54.6203735 39 40.6598979 39 37 25.9066362 42.8764386 30.9022765"></polygon>
                <polygon id="Rectangle" points="121.039481 240 124.829949 248 133 240 130.620373 256 116.659898 256 113 242.906636 118.876439 247.902276"></polygon>
                <polygon id="Rectangle" points="141.039481 94 144.829949 102 153 94 150.620373 110 136.659898 110 133 96.9066362 138.876439 101.902276"></polygon>
                <polygon id="Rectangle" points="212.039481 0 215.829949 8 224 0 221.620373 16 207.659898 16 204 2.90663625 209.876439 7.90227646"></polygon>
                <polygon id="Rectangle" points="404.039481 182 407.829949 190 416 182 413.620373 198 399.659898 198 396 184.906636 401.876439 189.902276"></polygon>
                <polygon id="Rectangle" points="397.039481 7 400.829949 15 409 7 406.620373 23 392.659898 23 389 9.90663625 394.876439 14.9022765"></polygon>
                <polygon id="Rectangle" points="8.03948081 209 11.829949 217 20 209 17.6203735 225 3.65989792 225 3.46944695e-17 211.906636 5.87643863 216.902276"></polygon>
                <polygon id="Rectangle" points="325.039481 90 328.829949 98 337 90 334.620373 106 320.659898 106 317 92.9066362 322.876439 97.9022765"></polygon>
            </g>
            <g id="Group" transform="translate(0.000000, 176.000000)">
                <polygon id="Rectangle" points="404.039481 182 407.829949 190 416 182 413.620373 198 399.659898 198 396 184.906636 401.876439 189.902276"></polygon>
                <polygon id="Rectangle" points="397.039481 7 400.829949 15 409 7 406.620373 23 392.659898 23 389 9.90663625 394.876439 14.9022765"></polygon>
                <polygon id="Rectangle" points="325.039481 90 328.829949 98 337 90 334.620373 106 320.659898 106 317 92.9066362 322.876439 97.9022765"></polygon>
            </g>
        </g>
    </g>
</svg>