<?xml version="1.0" encoding="UTF-8"?>
<svg width="18px" height="33px" viewBox="0 0 18 33" version="1.1" xmlns="http://www.w3.org/2000/svg" xmlns:xlink="http://www.w3.org/1999/xlink">
    <!-- Generator: Sketch 53.2 (72643) - https://sketchapp.com -->
    <title>Mailbox-Yellow</title>
    <desc>Created with Sketch.</desc>
    <g id="Mailbox-Yellow" stroke="none" stroke-width="1" fill="none" fill-rule="evenodd">
        <rect id="Rectangle" fill="#2D4789" x="8" y="12" width="2" height="21"></rect>
        <path d="M0.503291765,12.5976592 L17.4875601,12.5976592 C17.2313581,4.45175513 14.3697879,0.5 8.88283672,0.5 C3.39852879,0.5 0.611712106,4.44870033 0.503291765,12.5976592 Z" id="Box" stroke="#5A86F0" fill="#4569C1"></path>
        <g id="Lid" transform="translate(0.500000, 12.000000)">
            <path d="M1.69155029,0.5 L0.566400466,9.5 L16.4335995,9.5 L15.3084497,0.5 L1.69155029,0.5 Z" id="Rectangle" stroke="#5A86F0" fill="#4569C1"></path>
            <path d="M12.1764941,6 C13.2160803,6 14.0720012,5.1045695 14.088247,4 C14.1044929,2.8954305 13.327591,2 12.3529882,2 C11.3783853,2 10.5224644,2.8954305 10.4412352,4 C10.3600061,5.1045695 11.1369079,6 12.1764941,6 Z" id="Oval" fill="#F8BC1C" transform="translate(12.261950, 4.000000) scale(-1, 1) translate(-12.261950, -4.000000) "></path>
            <text id="asdasd-sddasd-asdasd" font-family="RedactedScript, Redacted Script" font-size="2" font-weight="normal" fill="#252525">
                <tspan x="2.5" y="4">asdasd</tspan>
                <tspan x="2.5" y="6">sddasd</tspan>
                <tspan x="2.5" y="8">asdasdasdasd</tspan>
            </text>
        </g>
        <g id="Mail" transform="translate(2.500000, 10.500000)" fill="#FFFFFF">
            <polygon id="Rectangle" points="1.5 0.5 11.5 0.5 12.5 0.839768506 12.5 1.5 0.5 1.5 0.5 0.864979954"></polygon>
            <polygon id="Rectangle" points="2 0 12 0 13 0.339768506 13 1 1 1 1 0.364979954"></polygon>
        </g>
    </g>
</svg>