<?xml version="1.0" encoding="UTF-8"?>
<svg width="28px" height="40px" viewBox="0 0 28 40" version="1.1" xmlns="http://www.w3.org/2000/svg" xmlns:xlink="http://www.w3.org/1999/xlink">
    <!-- Generator: Sketch 53.2 (72643) - https://sketchapp.com -->
    <title>Player-Left</title>
    <desc>Created with Sketch.</desc>
    <g id="Player-Left" stroke="none" stroke-width="1" fill="none" fill-rule="evenodd">
        <g id="Left" transform="translate(14.176193, 20.190257) scale(-1, 1) translate(-14.176193, -20.190257) translate(1.176193, -0.309743)">
            <g id="Bag" transform="translate(1.410606, 18.374246)">
                <path d="M3.41320045,5.20210208 L4.84759186,0" id="Path-4" stroke="#3B76BA"></path>
                <path d="M2.33333333,5.93549749 L11.4930676,5.93549749 C12.0131562,5.93549749 12.4464223,6.33415988 12.4896133,6.85245201 L12.8229467,10.852452 C12.8688114,11.402829 12.4598234,11.8861785 11.9094464,11.9320432 C11.8818244,11.9343451 11.8541186,11.9354975 11.8264009,11.9354975 L2,11.9354975 C1.44771525,11.9354975 1,11.4877822 1,10.9354975 C1,10.9077798 1.00115241,10.880074 1.00345424,10.852452 L1.33678758,6.85245201 C1.37997859,6.33415988 1.8132447,5.93549749 2.33333333,5.93549749 Z" id="Rectangle" fill="#4A90E2" transform="translate(6.913228, 8.935497) rotate(12.000000) translate(-6.913228, -8.935497) "></path>
            </g>
            <g id="Legs" transform="translate(6.823807, 32.309743)" fill="#77280C">
                <rect id="Rectangle" x="0" y="0" width="4" height="8" rx="1.5"></rect>
                <rect id="Rectangle" x="6" y="0" width="4" height="8" rx="1.5"></rect>
            </g>
            <g id="Body" transform="translate(4.823807, 16.309743)">
                <path d="M3.64705882,0 L9.98962834,4.4408921e-16 C11.5780573,1.5229955e-16 12.8911757,1.23814605 12.9844515,2.82383393 L13.6315103,13.8238339 C13.7288041,15.4778291 12.4668484,16.8975293 10.8128532,16.9948231 C10.7541946,16.9982736 10.6954472,17 10.6366872,17 L3,17 C1.34314575,17 4.9460801e-16,15.6568542 -4.4408921e-16,14 C-4.77379944e-16,13.94124 0.00172637159,13.8824926 0.00517688048,13.8238339 L0.652235704,2.82383393 C0.745511462,1.23814605 2.0586299,1.17996808e-15 3.64705882,8.8817842e-16 Z" fill="#973310"></path>
                <polygon id="Path" fill="#AF3D15" points="4 2 6.81838932 6.74156442 8.1761935 2"></polygon>
                <path d="M1.5,1.5 C2.90472794,2.29350459 4.50096214,2.69025689 6.28870259,2.69025689 C8.07644305,2.69025689 9.67267724,2.29350459 11.0774052,1.5" id="Path-3" stroke="#3B76BA"></path>
                <g id="USPS-logo" transform="translate(1.000000, 4.000000)">
                    <polygon id="Rectangle" fill="#185296" points="1 0 3.5 0 3 2 0.5 2"></polygon>
                    <path d="M1.14530945,0.0906219482 L1.11100769,0.480819702 C1.44804309,0.477818339 1.67738778,0.477818339 1.79904175,0.480819702 C2.22967936,0.491444095 2.43136303,0.53363217 2.47891235,0.622543335 C2.11851191,0.622543335 1.83981013,0.622543335 1.64280701,0.622543335 L1.76174927,1.15638733 C2.25985659,0.885807181 2.54256126,0.796283865 2.60986328,0.887817383 C2.54996769,0.904807723 2.38669055,0.925371664 2.26301575,0.986220065 C2.07884674,1.07683181 1.66731212,1.32828181 1.02841187,1.74057007 L1.00649351,1.88181818 L2.70259094,0.986220065 C2.80003357,0.735000194 2.80893962,0.600947062 2.72930908,0.584060669 C2.68012492,0.547246297 2.61067708,0.537343343 2.52096558,0.554351807 C2.48439517,0.502506471 2.42583193,0.460707561 2.34527588,0.428955078 C2.26471982,0.397202595 2.13675962,0.360449259 1.96139526,0.318695068" id="Path-5" fill="#D8D8D8"></path>
                </g>
            </g>
            <g id="Head">
                <rect fill="#FFCF85" x="2.8238065" y="4.30974311" width="18" height="14" rx="5"></rect>
                <g id="Eyes" transform="translate(8.823807, 7.309743)" fill="#252525">
                    <ellipse id="Oval" cx="2" cy="4.5" rx="2" ry="4.5"></ellipse>
                    <ellipse id="Oval" cx="9" cy="4.5" rx="2" ry="4.5"></ellipse>
                </g>
                <polygon id="Hair" fill="#996713" points="2.8238065 7.30974311 9.69258932 7.69025689 6.8238065 10.9067427 6.8238065 16.9920262 5.28583083 15.7138809 4.8238065 18.8097431 2.8238065 17.8097431"></polygon>
                <g id="Hat">
                    <path d="M4.00871643,1 L18.0087164,1 C19.6655707,1 21.0087164,2.34314575 21.0087164,4 L21.0087164,7 L1.00871643,7 L1.00871643,4 C1.00871643,2.34314575 2.35186218,1 4.00871643,1 Z" id="Rectangle" fill="#AF3D15" transform="translate(11.008716, 4.000000) rotate(-4.000000) translate(-11.008716, -4.000000) "></path>
                    <path d="M1.22341421,6.8684231 L24.5,6.8684231" id="Line" stroke="#973310" stroke-width="3" stroke-linecap="round" transform="translate(13.000000, 7.008282) rotate(-4.000000) translate(-13.000000, -7.008282) "></path>
                </g>
            </g>
        </g>
    </g>
</svg>