<?xml version="1.0" encoding="UTF-8"?>
<svg width="12px" height="12px" viewBox="0 0 12 12" version="1.1" xmlns="http://www.w3.org/2000/svg" xmlns:xlink="http://www.w3.org/1999/xlink">
    <!-- Generator: Sketch 53.2 (72643) - https://sketchapp.com -->
    <title>Slot</title>
    <desc>Created with Sketch.</desc>
    <g id="Slot" stroke="none" stroke-width="1" fill="none" fill-rule="evenodd">
        <rect id="Rectangle" fill="#6E6E6E" x="0" y="0" width="12" height="12" rx="2"></rect>
        <path d="M11.0606602,0.939339828 C10.7892136,0.667893219 10.4142136,0.5 10,0.5 L9.5,0.5 L10,0.5 C10.4142136,0.5 10.7892136,0.667893219 11.0606602,0.939339828 Z M9.5,0.5 L9,0.5 L9.5,1 L9.5,0 L9,0.5 L9.5,0.5 Z M11.5,2.5 L11.5,3 L12,2.5 L11,2.5 L11.5,3 L11.5,2.5 Z M0.939339828,0.939339828 C0.667893219,1.21078644 0.5,1.58578644 0.5,2 L0.5,2.5 L0.5,2 C0.5,1.58578644 0.667893219,1.21078644 0.939339828,0.939339828 Z M0.5,2.5 L0.5,3 L1,2.5 L0,2.5 L0.5,3 L0.5,2.5 Z M2.5,0.5 L3,0.5 L2.5,0 L2.5,1 L3,0.5 L2.5,0.5 Z M11.5,9.5 L11.5,9 L11,9.5 L12,9.5 L11.5,9 L11.5,9.5 Z M11.5,9.5 L11.5,10 C11.5,10.8284271 10.8284271,11.5 10,11.5 L9,11.5 L9.5,12 L9.5,11 L9,11.5 L10,11.5 C10.8284271,11.5 11.5,10.8284271 11.5,10 L11.5,9.5 Z M2.5,11.5 L3,11.5 L2.5,11 L2.5,12 L3,11.5 L2.5,11.5 Z M0.939339828,11.0606602 C0.667893219,10.7892136 0.5,10.4142136 0.5,10 L0.5,9 L0,9.5 L1,9.5 L0.5,9 L0.5,10 C0.5,10.4142136 0.667893219,10.7892136 0.939339828,11.0606602 Z" id="Combined-Shape" stroke="#4A4A4A"></path>
        <rect id="Rectangle" fill="#616161" x="2" y="2" width="8" height="8" rx="1"></rect>
    </g>
</svg>