<?xml version="1.0" encoding="UTF-8"?>
<svg width="329px" height="356px" viewBox="0 0 329 356" version="1.1" xmlns="http://www.w3.org/2000/svg" xmlns:xlink="http://www.w3.org/1999/xlink">
    <!-- Generator: Sketch 52.1 (67048) - http://www.bohemiancoding.com/sketch -->
    <title>Artboard Copy</title>
    <desc>Created with Sketch.</desc>
    <defs>
        <radialGradient cx="50%" cy="57.5030723%" fx="50%" fy="57.5030723%" r="98.7363121%" gradientTransform="translate(0.500000,0.575031),scale(1.000000,0.924157),rotate(-90.000000),translate(-0.500000,-0.575031)" id="radialGradient-1">
            <stop stop-color="#73FF5C" offset="0%"></stop>
            <stop stop-color="#FFFFFF" stop-opacity="0" offset="100%"></stop>
        </radialGradient>
        <radialGradient cx="-5.08902352%" cy="110.967647%" fx="-5.08902352%" fy="110.967647%" r="137.610621%" gradientTransform="translate(-0.050890,1.109676),scale(1.000000,0.673931),rotate(-52.706259),translate(0.050890,-1.109676)" id="radialGradient-2">
            <stop stop-color="#3CFF00" stop-opacity="0" offset="0%"></stop>
            <stop stop-color="#24FF00" offset="100%"></stop>
        </radialGradient>
        <path d="M0.63671875,0.953125 C5.48307292,23.71875 22.609375,35.1015625 52.015625,35.1015625 C81.421875,35.1015625 99.8802083,23.71875 107.390625,0.953125 L0.63671875,0.953125 Z" id="path-3"></path>
    </defs>
    <g id="Artboard-Copy" stroke="none" stroke-width="1" fill="none" fill-rule="evenodd">
        <g id="Group-3" transform="translate(164.500000, 178.000000) scale(-1, 1) translate(-164.500000, -178.000000) ">
            <ellipse id="Oval" fill="url(#radialGradient-1)" fill-rule="nonzero" cx="164.5" cy="178" rx="164.5" ry="178"></ellipse>
            <path d="M82.2382813,323.3125 C92.0776041,324.464961 104.433073,315.56392 119.304688,296.609375 C129.768229,314.411458 142.39974,323.3125 157.199219,323.3125 C162.31253,323.3125 172.877634,314.411458 188.894531,296.609375 C197.196269,313.97217 207.037415,322.873211 218.417969,323.3125 C223.419416,323.505556 244.126799,318.624598 252.105469,296.609375 C262.475095,267.996881 267,125.439705 267,114 C267,57.1146708 220.885329,11 164,11 C107.114671,11 61,57.1146708 61,114 C61,170.885329 41.8307722,318.579644 82.2382813,323.3125 Z" id="Oval-Copy" fill="url(#radialGradient-2)" fill-rule="nonzero"></path>
            <circle id="Oval" fill="#FFFFFF" fill-rule="nonzero" cx="164" cy="114" r="94"></circle>
            <g id="Group" transform="translate(101.500000, 56.000000)" fill-rule="nonzero">
                <circle id="Oval" fill="#1CAE00" cx="34" cy="34" r="34"></circle>
                <circle id="Oval-Copy-2" fill="#37FF12" cx="43.5" cy="29" r="15.5"></circle>
            </g>
            <g id="Group-Copy" transform="translate(181.000000, 56.000000)" fill-rule="nonzero">
                <circle id="Oval" fill="#1CAE00" cx="34" cy="34" r="34"></circle>
                <circle id="Oval-Copy-2" fill="#37FF12" cx="43.5" cy="29" r="15.5"></circle>
            </g>
            <g id="Group-2" transform="translate(103.000000, 142.000000)">
                <mask id="mask-4" fill="white">
                    <use xlink:href="#path-3"></use>
                </mask>
                <use id="Path" fill="#83FF6D" fill-rule="nonzero" xlink:href="#path-3"></use>
                <ellipse id="Oval" fill="#1CAE00" fill-rule="nonzero" mask="url(#mask-4)" cx="53.5" cy="35.5" rx="28.5" ry="7.5"></ellipse>
            </g>
        </g>
    </g>
</svg>